<svg width="30" height="30" viewBox="0 0 30 30" fill="none" xmlns="http://www.w3.org/2000/svg">
<g clip-path="url(#clip0_820_2980)">
<path d="M11.2498 0H14.824C14.7461 1.6166 14.674 3.23438 14.5896 4.85039C14.5234 6.08672 14.3723 7.31133 14.0588 8.51191C13.3504 11.2178 11.698 13.05 9.01973 13.9131C7.52559 14.3941 5.97285 14.5318 4.41836 14.6338C2.94883 14.7299 1.47578 14.7633 0.00390625 14.8242V11.3086C0.0179687 11.2131 0.0402344 11.1182 0.0449219 11.0227C0.0929688 10.0582 0.11875 9.09258 0.189062 8.1293C0.278125 6.9123 0.446875 5.70527 0.833594 4.54043C1.20039 3.4084 1.74824 2.39062 2.75781 1.68516C3.79023 0.965039 4.96504 0.630469 6.1832 0.416602C7.71543 0.151172 9.26406 0.0738281 10.8162 0.0445313C10.9609 0.0416016 11.1051 0.0152344 11.2498 0Z" fill="white"/>
<path d="M14.8238 29.9998H11.3082C11.213 29.9818 11.117 29.9687 11.0205 29.9605C10.2799 29.9307 9.53809 29.9184 8.79805 29.8732C7.47324 29.793 6.15781 29.6424 4.87227 29.2873C2.9123 28.7482 1.50723 27.6092 0.887891 25.6223C0.722679 25.1126 0.585752 24.5943 0.477734 24.0695C0.163672 22.4658 0.0816406 20.8393 0.0458984 19.2092C0.0423828 19.0334 0.0154297 18.8629 -0.000976562 18.6895V15.1738C1.63555 15.2523 3.275 15.291 4.90742 15.4223C6.04824 15.5131 7.19727 15.6479 8.31113 15.9004C11.0521 16.5209 12.9535 18.1486 13.867 20.8428C14.3908 22.3867 14.5297 24.001 14.6334 25.6129C14.7277 27.0742 14.7652 28.5391 14.8238 29.9998Z" fill="white"/>
<path d="M30 15.1758V18.6328C29.9859 18.7383 29.9643 18.8432 29.959 18.9486C29.9104 19.9225 29.8846 20.8986 29.8143 21.8707C29.7258 23.0877 29.5541 24.2941 29.1697 25.4596C28.7695 26.6936 28.1455 27.7729 26.9988 28.4807C26.018 29.0848 24.9369 29.3924 23.8166 29.5863C22.2744 29.8529 20.7158 29.9262 19.1549 29.9578C19.0002 29.9613 18.8461 29.9871 18.6914 30.0023H15.1758C15.2543 28.3758 15.293 26.7457 15.4236 25.1232C15.5145 23.9818 15.651 22.834 15.8982 21.7184C16.507 18.9738 18.1248 17.0678 20.8201 16.1438C22.3717 15.6111 23.9959 15.474 25.6172 15.3686C27.0744 15.2713 28.5381 15.2385 30 15.1758Z" fill="white"/>
<path d="M30 11.3672V14.8242C28.4027 14.7463 26.8055 14.6713 25.2082 14.5898C23.9525 14.5248 22.7074 14.3748 21.4887 14.0561C18.8086 13.3529 16.9799 11.7287 16.1063 9.07148C15.6123 7.56914 15.4705 6.00703 15.3668 4.44258C15.2689 2.96484 15.2344 1.48125 15.1758 0H18.75C18.8354 0.0177021 18.9216 0.0308069 19.0084 0.0392578C19.9922 0.0878906 20.9777 0.114258 21.9598 0.185742C23.1574 0.272461 24.3439 0.443555 25.4883 0.824414C26.7773 1.25273 27.8725 1.92949 28.5633 3.14883C29.0549 4.01602 29.3396 4.9541 29.5236 5.92617C29.8266 7.52227 29.9139 9.1377 29.9502 10.7578C29.9561 10.9611 29.983 11.1645 30 11.3672Z" fill="white"/>
</g>
<defs>
<clipPath id="clip0_820_2980">
<rect width="30" height="30" fill="white"/>
</clipPath>
</defs>
</svg>
