<svg width="30" height="30" viewBox="0 0 30 30" fill="none" xmlns="http://www.w3.org/2000/svg">
<g clip-path="url(#clip0_820_2985)">
<path d="M29.4398 5.53923C29.4398 4.2187 28.9153 2.95225 27.9815 2.0185C27.0477 1.08474 25.7813 0.560164 24.4608 0.560164C24.4608 0.560164 20.5124 0 14.9996 0C9.48678 0 5.53922 0.560164 5.53922 0.560164C4.2187 0.560164 2.95225 1.08474 2.0185 2.0185C1.08474 2.95225 0.560164 4.2187 0.560164 5.53923C0.560164 5.53923 0 9.16669 0 14.9996C0 20.8325 0.560164 24.46 0.560164 24.46C0.560164 25.7805 1.08474 27.0469 2.0185 27.9807C2.95225 28.9145 4.2187 29.439 5.53922 29.439C5.53922 29.439 9.66523 29.9992 15.0428 29.9992C20.4204 29.9992 24.4608 29.439 24.4608 29.439C25.7809 29.439 27.047 28.9148 27.9807 27.9816C28.9143 27.0483 29.4392 25.7825 29.4398 24.4624C29.4398 24.4624 30 20.8701 30 15.002C30 9.13388 29.4398 5.53923 29.4398 5.53923ZM5.17832 24.8305H3.72829V23.3637H5.17832V24.8305ZM20.3428 5.4712C21.5503 5.4448 22.6634 5.72888 23.6421 6.46189C23.719 6.50995 23.7812 6.57803 23.8223 6.65882C23.8633 6.73961 23.8815 6.83005 23.875 6.92043C23.859 7.53581 23.8694 8.15279 23.8694 8.78658H22.3946C22.3946 8.38086 22.4098 7.97194 22.385 7.56622C22.3778 7.44378 22.2897 7.26933 22.1881 7.21732C20.8949 6.55392 19.032 6.68196 18.0885 8.28643C17.2018 9.79407 17.6428 11.7562 19.0488 12.6237C20.2491 13.3607 21.8352 13.0966 22.8347 11.9947C22.8771 11.9483 22.9211 11.9027 22.9819 11.8347L24.1335 12.7149C23.2852 13.8073 22.2129 14.4122 20.8461 14.4754C18.4694 14.5931 16.5344 13.079 16.0807 10.744C15.5758 8.13199 17.6756 5.52882 20.3428 5.4712ZM13.4864 18.8263H12.0523V17.5571C11.527 17.5426 11.0152 17.725 10.6175 18.0685C9.98133 18.6087 9.63483 19.3017 9.62842 20.1427C9.61962 21.2158 9.62842 22.2881 9.62842 23.4085H13.2927V24.7953H6.71077V23.4141H8.07917V17.5804C7.72707 17.5804 7.35896 17.5627 6.99965 17.586C6.72997 17.6028 6.66195 17.5003 6.67956 17.2507C6.69796 16.9306 6.67956 16.6041 6.67956 16.2576H9.36595C9.39796 16.7729 9.43077 17.2883 9.46998 17.9245C10.4303 16.3192 11.8643 16.0663 13.4864 16.2592V18.8263ZM14.6227 7.13089C14.3602 7.11168 14.2458 7.20611 14.1554 7.45098C13.3399 9.66523 12.5053 11.8723 11.6898 14.0857C11.5994 14.3322 11.4866 14.4306 11.2249 14.4058C10.9758 14.3814 10.7249 14.3814 10.4759 14.4058C10.2358 14.4282 10.1382 14.3258 10.0614 14.1097C9.28112 11.9059 8.48569 9.70845 7.71026 7.5022C7.61103 7.21972 7.48459 7.10608 7.18051 7.13089C6.826 7.1605 6.4675 7.13809 6.07858 7.13809V5.67446H6.91563C7.41497 5.67446 7.91592 5.69127 8.41367 5.66726C8.67694 5.65446 8.79058 5.74088 8.8746 5.98736C9.51959 7.90792 10.1798 9.81808 10.836 11.7322C10.864 11.8123 10.8944 11.8923 10.9496 12.0435C11.0112 11.8835 11.0552 11.7867 11.0913 11.6826C11.745 9.79007 12.4036 7.89912 13.0414 6.00096C13.1311 5.73448 13.2535 5.65926 13.5216 5.66646C14.2266 5.68487 14.9316 5.67286 15.6662 5.67286V7.13729C15.3125 7.13729 14.966 7.1557 14.6227 7.13089ZM24.6744 24.8161C23.9406 24.8161 23.2268 24.8225 22.5138 24.8049C22.4466 24.8049 22.3418 24.6624 22.3241 24.572C22.2553 24.2239 22.2161 23.8694 22.1569 23.4589C22.0769 23.5613 22.0273 23.6189 21.984 23.687C21.2686 24.7769 20.1515 25.2514 18.8919 24.9993C17.5956 24.7393 16.7313 23.8646 16.512 22.5634C16.4593 22.2428 16.4326 21.9185 16.432 21.5935C16.4224 20.4316 16.428 19.2729 16.428 18.1085V17.7196H15.154V16.236H17.9589V16.6465C17.9589 18.2101 17.9549 19.7738 17.9629 21.3375C17.9601 21.6408 17.9894 21.9437 18.0501 22.2409C18.3414 23.5517 19.5305 24.0671 20.7005 23.3917C21.4719 22.9459 21.9128 22.2505 21.9496 21.3759C22 20.1755 21.9624 18.9696 21.9624 17.7052H20.4948V16.2592H23.5109V23.3813H24.6752L24.6744 24.8161Z" fill="white"/>
</g>
<defs>
<clipPath id="clip0_820_2985">
<rect width="30" height="30" fill="white"/>
</clipPath>
</defs>
</svg>
