<svg width="30" height="30" viewBox="0 0 30 30" fill="none" xmlns="http://www.w3.org/2000/svg">
<g clip-path="url(#clip0_820_2991)">
<path d="M29.4398 5.53923C29.4398 4.2187 28.9153 2.95225 27.9815 2.0185C27.0478 1.08474 25.7813 0.560164 24.4608 0.560164C24.4608 0.560164 20.5132 0 15.0004 0C9.48759 0 5.53922 0.560164 5.53922 0.560164C4.21869 0.560164 2.95226 1.08474 2.0185 2.0185C1.08475 2.95225 0.560164 4.2187 0.560164 5.53923C0.560164 5.53923 0 9.16669 0 14.9996C0 20.8325 0.560164 24.46 0.560164 24.46C0.560164 25.7805 1.08475 27.0469 2.0185 27.9807C2.95226 28.9145 4.21869 29.439 5.53922 29.439C5.53922 29.439 9.66523 29.9992 15.0428 29.9992C20.4204 29.9992 24.4608 29.439 24.4608 29.439C25.7813 29.439 27.0478 28.9145 27.9815 27.9807C28.9153 27.0469 29.4398 25.7805 29.4398 24.46C29.4398 24.46 30 20.8677 30 14.9996C30 9.13148 29.4398 5.53923 29.4398 5.53923ZM23.1356 16.7873C23.8198 17.4723 24.5264 18.1357 25.1858 18.8431C25.5086 19.2025 25.7906 19.5965 26.0268 20.0179C26.4582 20.7573 26.1669 21.2758 25.2962 21.3207C24.496 21.3623 23.6878 21.3559 22.8835 21.3687C22.6915 21.3727 22.4986 21.3583 22.3073 21.3751C21.5519 21.4423 20.9229 21.1542 20.3948 20.6549C19.9378 20.2227 19.5305 19.7386 19.0904 19.2881C18.8552 19.0338 18.5999 18.7988 18.327 18.5855C17.9085 18.2774 17.5395 18.3678 17.2699 18.8143C17.0002 19.2609 16.9322 19.7746 16.9122 20.2867C16.881 21.1006 16.6097 21.3679 15.7918 21.3759C14.7851 21.3847 13.784 21.3871 12.8054 21.0878C11.0865 20.562 9.72285 19.5345 8.59372 18.1661C6.98045 16.2111 5.75769 14.0137 4.63176 11.7586C4.35488 11.2049 4.0956 10.6383 3.84273 10.0782C3.60266 9.5444 3.78911 9.24031 4.37168 9.2267C5.38638 9.2027 6.40108 9.1963 7.41257 9.1851C7.97274 9.17869 8.34725 9.40276 8.57051 9.95172C9.16396 11.4341 9.94784 12.8329 10.9024 14.1129C11.0776 14.3462 11.2829 14.5553 11.513 14.7347C11.8603 15.0028 12.194 14.9068 12.3348 14.4947C12.456 14.1706 12.5259 13.8296 12.5421 13.484C12.5517 12.5749 12.5365 11.6626 12.4789 10.7552C12.4333 10.0429 11.9987 9.63963 11.2897 9.5404C11.252 9.52719 11.2158 9.51002 11.1817 9.48918C11.2505 9.32974 11.3554 9.18847 11.4882 9.07653C11.621 8.9646 11.7779 8.88506 11.9467 8.8442C12.3447 8.74711 12.7503 8.68445 13.1591 8.65694C14.1354 8.59612 15.114 8.57692 16.0791 8.78498C16.6313 8.90341 16.8962 9.1851 16.9026 9.75006C16.9146 10.7167 16.8793 11.6834 16.8745 12.6501C16.8745 13.115 16.893 13.5792 16.9042 14.0441C16.9039 14.0807 16.9076 14.1172 16.9154 14.1529C16.9898 14.4378 17.0594 14.7531 17.3747 14.8492C17.666 14.938 17.8724 14.7099 18.0557 14.5219C18.8407 13.716 19.4161 12.7613 19.9306 11.7739C20.2579 11.1449 20.5332 10.4887 20.8109 9.83648C21.0334 9.32033 21.219 9.18269 21.7864 9.17949C22.9478 9.17256 24.1089 9.16455 25.2698 9.15548C26.2301 9.14668 26.4702 9.47558 26.0877 10.3686C25.6619 11.3681 25.0001 12.222 24.3575 13.0854C23.8998 13.7 23.4189 14.2986 22.9715 14.9212C22.377 15.7518 22.4114 16.0599 23.1356 16.7873Z" fill="white"/>
</g>
<defs>
<clipPath id="clip0_820_2991">
<rect width="30" height="30" fill="white"/>
</clipPath>
</defs>
</svg>
