<svg width="50.000000" height="50.000000" viewBox="0 0 50 50" fill="none" xmlns="http://www.w3.org/2000/svg" xmlns:xlink="http://www.w3.org/1999/xlink">
	<desc>
			Created with Pixso.
	</desc>
	<defs/>
	<rect id="Rectangle 93" x="50.000000" y="50.000000" rx="25.000000" width="50.000000" height="50.000000" transform="rotate(-180 50.000000 50.000000)" fill="#0082C6" fill-opacity="1.000000"/>
	<path id="Vector" d="M26.73 23.36C26.86 23.49 26.97 23.65 27.04 23.82C27.11 23.99 27.15 24.18 27.15 24.37C27.15 24.56 27.11 24.74 27.04 24.92C26.97 25.09 26.86 25.25 26.73 25.38L20.17 31.91C20.04 32.05 19.93 32.21 19.86 32.38C19.79 32.55 19.75 32.74 19.75 32.93C19.75 33.12 19.79 33.3 19.86 33.48C19.93 33.65 20.04 33.81 20.17 33.94C20.44 34.21 20.8 34.35 21.18 34.35C21.56 34.35 21.92 34.21 22.18 33.94L28.74 27.39C29.54 26.59 30 25.5 30 24.37C30 23.24 29.54 22.15 28.74 21.35L22.18 14.8C21.92 14.54 21.56 14.39 21.19 14.39C21 14.38 20.81 14.42 20.64 14.49C20.46 14.56 20.3 14.67 20.17 14.8C20.04 14.93 19.93 15.09 19.86 15.26C19.79 15.44 19.75 15.62 19.75 15.81C19.75 16 19.79 16.19 19.86 16.36C19.93 16.53 20.04 16.69 20.17 16.82L26.73 23.36Z" fill="#FFFFFF" fill-opacity="1.000000" fill-rule="nonzero"/>
</svg>
