<svg width="30" height="31" viewBox="0 0 30 31" fill="none" xmlns="http://www.w3.org/2000/svg">
<g clip-path="url(#clip0_38_474)">
<g clip-path="url(#clip1_38_474)">
<path fill-rule="evenodd" clip-rule="evenodd" d="M14.9998 18.5947C15.5138 18.5954 16.0195 18.4641 16.4682 18.2133C16.9169 17.9625 17.2935 17.6006 17.5622 17.1624C17.8308 16.7241 17.9823 16.2242 18.0021 15.7105C18.0219 15.1969 17.9094 14.6867 17.6754 14.229C17.4414 13.7713 17.0938 13.3814 16.6658 13.0967C16.2378 12.8121 15.7438 12.6422 15.2312 12.6033C14.7187 12.5644 14.2047 12.6578 13.7387 12.8747C13.2726 13.0915 12.8701 13.4245 12.5697 13.8417C12.1986 14.3489 11.999 14.9612 11.9998 15.5897C11.9991 15.984 12.0762 16.3747 12.2267 16.7393C12.3772 17.1038 12.5981 17.4351 12.8767 17.7142C13.1554 17.9933 13.4863 18.2148 13.8506 18.3658C14.2149 18.5169 14.6054 18.5947 14.9998 18.5947ZM21.5598 11.9197V9.02869H21.1798L18.6698 9.03564L18.6798 11.9277L21.5598 11.9197ZM14.9998 0.59668C12.0335 0.598657 9.13439 1.48003 6.66897 3.12946C4.20355 4.77888 2.28248 7.12228 1.1487 9.86334C0.0149223 12.6044 -0.280691 15.6201 0.299216 18.5291C0.879123 21.4382 2.30857 24.11 4.40676 26.2068C6.50495 28.3036 9.17762 29.7312 12.0871 30.3091C14.9965 30.8871 18.012 30.5895 20.7523 29.4539C23.4926 28.3183 25.8348 26.3957 27.4826 23.9292C29.1303 21.4627 30.0098 18.563 30.0098 15.5967C30.0055 11.618 28.4225 7.80363 25.6082 4.99121C22.7939 2.1788 18.9785 0.598267 14.9998 0.59668ZM23.5398 13.8427V20.8257C23.5398 21.7009 23.1921 22.5402 22.5733 23.1591C21.9544 23.778 21.115 24.1257 20.2398 24.1257H9.7698C8.89458 24.1257 8.05517 23.778 7.4363 23.1591C6.81743 22.5402 6.46975 21.7009 6.46975 20.8257V10.3607C6.46975 9.48544 6.81743 8.64609 7.4363 8.02722C8.05517 7.40835 8.89458 7.06067 9.7698 7.06067H20.2398C21.115 7.06067 21.9544 7.40835 22.5733 8.02722C23.1921 8.64609 23.5398 9.48544 23.5398 10.3607V13.8427ZM19.6698 15.5927C19.6733 16.2836 19.5235 16.9667 19.2311 17.5927C18.9387 18.2186 18.5111 18.772 17.979 19.2127C17.447 19.6535 16.8237 19.9706 16.1542 20.1414C15.4847 20.3122 14.7857 20.3323 14.1076 20.2003C13.4294 20.0683 12.7888 19.7874 12.2323 19.378C11.6758 18.9686 11.2171 18.4407 10.8892 17.8326C10.5613 17.2244 10.3724 16.5511 10.3362 15.8611C10.3 15.1712 10.4174 14.4818 10.6798 13.8427H8.12978V20.8257C8.12991 21.0407 8.17248 21.2535 8.25503 21.452C8.33758 21.6505 8.45851 21.8308 8.61086 21.9825C8.76322 22.1342 8.94397 22.2544 9.14284 22.3361C9.34172 22.4178 9.5548 22.4595 9.7698 22.4587H20.2398C20.6724 22.4581 21.0872 22.2858 21.3928 21.9796C21.6985 21.6734 21.87 21.2583 21.8698 20.8257V13.8427H19.3197C19.5483 14.3969 19.6673 14.9902 19.6698 15.5897V15.5927Z" fill="#989898"/>
</g>
</g>
<defs>
<clipPath id="clip0_38_474">
<rect width="30" height="30" fill="white" transform="translate(0 0.589844)"/>
</clipPath>
<clipPath id="clip1_38_474">
<rect width="30" height="30" fill="white" transform="translate(0 0.589844)"/>
</clipPath>
</defs>
</svg>
