<svg width="23" height="23" viewBox="0 0 23 23" fill="none" xmlns="http://www.w3.org/2000/svg">
<g clip-path="url(#clip0_54_1457)">
<g clip-path="url(#clip1_54_1457)">
<path d="M11.8599 14.3432L9.13816 11.9609L1.35645 18.6317C1.6393 18.8941 2.02116 19.0575 2.4423 19.0575H21.2774C21.697 19.0575 22.0773 18.8941 22.3586 18.6317L14.5816 11.9609L11.8599 14.3432Z" fill="#B3B3B3"/>
<path d="M22.3631 3.76912C22.0802 3.50512 21.6999 3.34326 21.2772 3.34326H2.44209C2.02252 3.34326 1.64223 3.50669 1.35938 3.77226L11.8597 12.7718L22.3631 3.76912Z" fill="#B3B3B3"/>
<path d="M0.859863 4.72314V17.7786L8.45458 11.3247L0.859863 4.72314Z" fill="#B3B3B3"/>
<path d="M15.2651 11.3245L22.8599 17.7784V4.71826L15.2651 11.3245Z" fill="#B3B3B3"/>
</g>
</g>
<defs>
<clipPath id="clip0_54_1457">
<rect width="22" height="22" fill="white" transform="translate(0.859863 0.200195)"/>
</clipPath>
<clipPath id="clip1_54_1457">
<rect width="22" height="22" fill="white" transform="translate(0.859863 0.200195)"/>
</clipPath>
</defs>
</svg>
