<svg width="20" height="20" viewBox="0 0 20 20" fill="none" xmlns="http://www.w3.org/2000/svg">
<path d="M11.1671 9.40832C11.2452 9.48579 11.3072 9.57796 11.3495 9.67951C11.3918 9.78106 11.4136 9.88998 11.4136 9.99999C11.4136 10.11 11.3918 10.2189 11.3495 10.3205C11.3072 10.422 11.2452 10.5142 11.1671 10.5917L7.34211 14.4083C7.264 14.4858 7.20201 14.578 7.1597 14.6795C7.11739 14.7811 7.09561 14.89 7.09561 15C7.09561 15.11 7.11739 15.2189 7.1597 15.3205C7.20201 15.422 7.264 15.5142 7.34211 15.5917C7.49824 15.7469 7.70945 15.834 7.92961 15.834C8.14976 15.834 8.36097 15.7469 8.51711 15.5917L12.3421 11.7667C12.8103 11.2979 13.0732 10.6625 13.0732 9.99999C13.0732 9.33749 12.8103 8.70207 12.3421 8.23332L8.51711 4.40832C8.36189 4.25437 8.15239 4.16758 7.93378 4.16666C7.8241 4.16602 7.71539 4.18704 7.61385 4.22851C7.51232 4.26998 7.41998 4.33109 7.34211 4.40832C7.264 4.48579 7.20201 4.57796 7.1597 4.67951C7.11739 4.78106 7.09561 4.88998 7.09561 4.99999C7.09561 5.11 7.11739 5.21892 7.1597 5.32047C7.20201 5.42202 7.264 5.51418 7.34211 5.59165L11.1671 9.40832Z" fill="#0082C6"/>
</svg>
