<svg width="23" height="23" viewBox="0 0 23 23" fill="none" xmlns="http://www.w3.org/2000/svg">
<g clip-path="url(#clip0_54_1451)">
<g clip-path="url(#clip1_54_1451)">
<path d="M16.3779 0.200195H6.42233C5.59291 0.200195 4.91406 0.878404 4.91406 1.70846V6.48272V15.9183V20.6926C4.91406 21.5226 5.59291 22.2002 6.42233 22.2002H16.3779C17.2073 22.2002 17.8862 21.5226 17.8862 20.6926V15.9183V6.48272V1.70846C17.8862 0.878404 17.2073 0.200195 16.3779 0.200195ZM8.56925 20.4635H6.94359C6.64436 20.4635 6.40127 20.2211 6.40127 19.9218C6.40127 19.622 6.64436 19.3789 6.94359 19.3789H8.56925C8.86847 19.3789 9.11156 19.622 9.11156 19.9218C9.11156 20.2211 8.86847 20.4635 8.56925 20.4635ZM8.56925 18.3964H6.94359C6.64436 18.3964 6.40127 18.1533 6.40127 17.854C6.40127 17.5548 6.64436 17.3117 6.94359 17.3117H8.56925C8.86847 17.3117 9.11156 17.5548 9.11156 17.854C9.11156 18.1533 8.86847 18.3964 8.56925 18.3964ZM8.56925 16.3292H6.94359C6.64436 16.3292 6.40127 16.0867 6.40127 15.7875C6.40127 15.487 6.64436 15.2446 6.94359 15.2446H8.56925C8.86847 15.2446 9.11156 15.487 9.11156 15.7875C9.11156 16.0867 8.86847 16.3292 8.56925 16.3292ZM8.56925 14.2627H6.94359C6.64436 14.2627 6.40127 14.0196 6.40127 13.7204C6.40127 13.4211 6.64436 13.1774 6.94359 13.1774H8.56925C8.86847 13.1774 9.11156 13.4211 9.11156 13.7204C9.11156 14.0196 8.86847 14.2627 8.56925 14.2627ZM12.2129 20.4635H10.5879C10.2881 20.4635 10.0456 20.2211 10.0456 19.9218C10.0456 19.622 10.2881 19.3789 10.5879 19.3789H12.2129C12.5128 19.3789 12.7553 19.622 12.7553 19.9218C12.7546 20.2211 12.5122 20.4635 12.2129 20.4635ZM12.2129 18.3964H10.5879C10.2881 18.3964 10.0456 18.1533 10.0456 17.854C10.0456 17.5548 10.2881 17.3117 10.5879 17.3117H12.2129C12.5128 17.3117 12.7553 17.5548 12.7553 17.854C12.7553 18.1533 12.5122 18.3964 12.2129 18.3964ZM12.2129 16.3292H10.5879C10.2881 16.3292 10.0456 16.0867 10.0456 15.7875C10.0456 15.487 10.2881 15.2446 10.5879 15.2446H12.2129C12.5128 15.2446 12.7553 15.487 12.7553 15.7875C12.7546 16.0867 12.5122 16.3292 12.2129 16.3292ZM12.2129 14.2627H10.5879C10.2881 14.2627 10.0456 14.0196 10.0456 13.7204C10.0456 13.4211 10.2881 13.1774 10.5879 13.1774H12.2129C12.5128 13.1774 12.7553 13.4211 12.7553 13.7204C12.7553 14.0196 12.5122 14.2627 12.2129 14.2627ZM15.8566 20.4635H14.2303C13.9311 20.4635 13.688 20.2211 13.688 19.9218C13.688 19.622 13.9311 19.3789 14.2303 19.3789H15.8566C16.1559 19.3789 16.399 19.622 16.399 19.9218C16.3983 20.2211 16.1552 20.4635 15.8566 20.4635ZM15.8566 18.3964H14.2303C13.9311 18.3964 13.688 18.1533 13.688 17.854C13.688 17.5548 13.9311 17.3117 14.2303 17.3117H15.8566C16.1559 17.3117 16.399 17.5548 16.399 17.854C16.399 18.1533 16.1552 18.3964 15.8566 18.3964ZM15.8566 16.3292H14.2303C13.9311 16.3292 13.688 16.0867 13.688 15.7875C13.688 15.487 13.9311 15.2446 14.2303 15.2446H15.8566C16.1559 15.2446 16.399 15.487 16.399 15.7875C16.3983 16.0867 16.1552 16.3292 15.8566 16.3292ZM15.8566 14.2627H14.2303C13.9311 14.2627 13.688 14.0196 13.688 13.7204C13.688 13.4211 13.9311 13.1774 14.2303 13.1774H15.8566C16.1559 13.1774 16.399 13.4211 16.399 13.7204C16.399 14.0196 16.1552 14.2627 15.8566 14.2627ZM16.4309 11.9269H6.36937V1.96813H16.4309V11.9269Z" fill="#B3B3B3"/>
</g>
</g>
<defs>
<clipPath id="clip0_54_1451">
<rect width="22" height="22" fill="white" transform="translate(0.399902 0.200195)"/>
</clipPath>
<clipPath id="clip1_54_1451">
<rect width="22" height="22" fill="white" transform="translate(0.399902 0.200195)"/>
</clipPath>
</defs>
</svg>
