<svg width="31" height="31" viewBox="0 0 31 31" fill="none" xmlns="http://www.w3.org/2000/svg">
<g clip-path="url(#clip0_38_477)">
<g clip-path="url(#clip1_38_477)">
<g clip-path="url(#clip2_38_477)">
<path fill-rule="evenodd" clip-rule="evenodd" d="M12.8899 18.8768C15.1499 17.7088 17.3799 16.5528 19.6299 15.3848L12.8899 11.8718V18.8718V18.8768ZM15.6299 0.589844C12.6632 0.589844 9.76313 1.46958 7.29639 3.1178C4.82966 4.76602 2.90705 7.10872 1.77173 9.84961C0.63642 12.5905 0.339319 15.6065 0.918097 18.5162C1.49688 21.4259 2.92553 24.0987 5.02332 26.1965C7.12111 28.2943 9.79378 29.7229 12.7035 30.3016C15.6132 30.8804 18.6292 30.5834 21.3701 29.4481C24.111 28.3127 26.4537 26.3901 28.1019 23.9234C29.7502 21.4567 30.6299 18.5566 30.6299 15.5898C30.6299 11.6116 29.0495 7.79626 26.2365 4.98322C23.4234 2.17017 19.6081 0.589844 15.6299 0.589844ZM25.8499 20.5958C25.7308 21.1371 25.4465 21.628 25.0363 22.0006C24.626 22.3732 24.1101 22.6092 23.5599 22.6758C18.2805 23.0678 12.9792 23.0678 7.69984 22.6758C7.14964 22.6092 6.63376 22.3732 6.22352 22.0006C5.81327 21.628 5.52901 21.1371 5.40992 20.5958C4.91659 17.2764 4.91659 13.9023 5.40992 10.5828C5.52892 10.0413 5.81317 9.55015 6.22339 9.17719C6.63362 8.80422 7.14948 8.56791 7.69984 8.50085C12.9793 8.11019 18.2805 8.11019 23.5599 8.50085C24.1103 8.56791 24.6262 8.80422 25.0364 9.17719C25.4466 9.55015 25.7309 10.0413 25.8499 10.5828C26.3432 13.9023 26.3432 17.2764 25.8499 20.5958Z" fill="#989898"/>
</g>
</g>
</g>
<defs>
<clipPath id="clip0_38_477">
<rect width="30" height="30" fill="white" transform="translate(0.629883 0.589844)"/>
</clipPath>
<clipPath id="clip1_38_477">
<rect width="30" height="30" fill="white" transform="translate(0.629883 0.589844)"/>
</clipPath>
<clipPath id="clip2_38_477">
<rect width="30" height="30" fill="white" transform="translate(0.629883 0.589844)"/>
</clipPath>
</defs>
</svg>
