<svg width="160" height="45" fill="none" xmlns="http://www.w3.org/2000/svg"><path fill-rule="evenodd" clip-rule="evenodd" d="M40.381 10.667v22.095h-7.557v-8.144h-6.98v8.144h-7.558V10.667h7.557v7.828h6.981v-7.828h7.557zM46.834 32.072c-1.689-.403-3.076-.945-4.161-1.627l2.334-5.329c1.024.6 2.17 1.08 3.44 1.44 1.269.362 2.487.543 3.654.543 1.003 0 1.72-.098 2.15-.294.43-.197.645-.49.645-.883 0-.454-.281-.795-.845-1.023-.563-.227-1.489-.475-2.78-.743-1.657-.351-3.04-.728-4.145-1.131-1.105-.403-2.068-1.064-2.887-1.983-.819-.92-1.228-2.164-1.228-3.734a6.47 6.47 0 011.136-3.718c.757-1.115 1.889-1.993 3.394-2.633 1.505-.64 3.332-.96 5.482-.96 1.474 0 2.922.16 4.345.48 1.423.32 2.677.79 3.762 1.409l-2.18 5.298c-2.11-1.074-4.105-1.611-5.989-1.611-1.863 0-2.795.455-2.795 1.363 0 .434.277.76.83.977.552.216 1.463.449 2.733.697 1.638.31 3.02.666 4.146 1.069a7.215 7.215 0 012.933 1.967c.83.91 1.243 2.148 1.243 3.718a6.4 6.4 0 01-1.136 3.703c-.757 1.105-1.888 1.982-3.393 2.633-1.505.65-3.332.976-5.482.976-1.781 0-3.516-.201-5.206-.604zM82.075 26.665v5.515H64.201V10.492h17.475v5.515h-10.35v2.54h9.09v5.268h-9.09v2.85h10.75zM95.762 29.485c1.74 0 3.27-.34 4.591-1.023 1.321-.681 2.339-1.636 3.056-2.866.717-1.228 1.075-2.649 1.075-4.26 0-1.611-.358-3.031-1.075-4.26-.717-1.229-1.735-2.185-3.056-2.866-1.32-.682-2.85-1.023-4.591-1.023h-5.804v16.298h5.804zm-8.876-18.993h9.06c2.273 0 4.289.454 6.051 1.363 1.76.91 3.127 2.184 4.099 3.827.973 1.642 1.459 3.527 1.459 5.654 0 2.128-.486 4.012-1.459 5.655-.972 1.642-2.339 2.917-4.099 3.826-1.762.91-3.778 1.363-6.05 1.363h-9.06V10.492zM122.112 24.28l-4.637-10.628-4.638 10.627h9.275zm1.075 2.478h-11.425l-2.364 5.422h-3.163l9.735-21.688h3.04l9.767 21.688h-3.225l-2.365-5.422zM135.226 24.682v7.498h-3.041v-7.56l-8.537-14.128h3.286l6.879 11.433 6.91-11.433h3.041l-8.538 14.19zM146.722 31.67c-1.505-.507-2.687-1.163-3.547-1.968l1.136-2.417c.819.744 1.868 1.348 3.148 1.813 1.279.464 2.595.697 3.947.697 1.781 0 3.111-.305 3.992-.914.88-.61 1.321-1.42 1.321-2.432 0-.744-.241-1.348-.722-1.813-.482-.465-1.075-.821-1.781-1.07-.707-.247-1.705-.526-2.995-.836-1.617-.392-2.923-.784-3.915-1.177a6.457 6.457 0 01-2.549-1.813c-.707-.815-1.06-1.915-1.06-3.3 0-1.156.302-2.2.906-3.129.604-.929 1.52-1.673 2.749-2.23 1.228-.558 2.753-.837 4.575-.837 1.27 0 2.519.165 3.747.496 1.229.33 2.283.805 3.164 1.425l-1.014 2.479a11.092 11.092 0 00-2.887-1.317 10.7 10.7 0 00-3.01-.45c-1.74 0-3.045.321-3.915.961-.871.64-1.305 1.467-1.305 2.479 0 .744.245 1.347.737 1.812.491.465 1.1.827 1.827 1.085.726.258 1.714.532 2.964.821 1.617.392 2.917.785 3.9 1.177a6.574 6.574 0 012.534 1.797c.706.806 1.059 1.89 1.059 3.254a5.574 5.574 0 01-.921 3.113c-.614.94-1.546 1.684-2.795 2.231-1.249.548-2.785.821-4.606.821-1.618 0-3.179-.252-4.684-.759z" fill="#fff"/><mask id="a" maskUnits="userSpaceOnUse" x="0" y="0" width="22" height="45"><path fill-rule="evenodd" clip-rule="evenodd" d="M0 .27h21.925v44.682H0V.27z" fill="#fff"/></mask><g mask="url(#a)"><path fill-rule="evenodd" clip-rule="evenodd" d="M13.7 37.626a40.108 40.108 0 01-6.568-9.153A40.185 40.185 0 013.347 17.83a39.822 39.822 0 01-.73-5.62 46.05 46.05 0 01-.073-2.834c.01-.945.052-1.89.126-2.831l.064-.806.697-.393a39.159 39.159 0 018.719-3.622A39.537 39.537 0 0121.39.29a41.459 41.459 0 00-2.47-.004c-3.145.103-6.279.59-9.315 1.437A39.159 39.159 0 00.886 5.345l-.697.393-.063.806A41.46 41.46 0 000 9.374c-.002.946.016 1.891.073 2.835.11 1.887.353 3.767.73 5.62a40.185 40.185 0 003.784 10.644 40.108 40.108 0 006.568 9.153 40.523 40.523 0 004.168 3.79 44.514 44.514 0 002.804 2.012c1.209.789 2.664 1.524 2.664 1.524s.627-.463 1.134-.843c-1.156-.693-2.787-1.715-4.057-2.692-1.489-1.145-2.868-2.432-4.169-3.79z" fill="#fff"/></g><path fill-rule="evenodd" clip-rule="evenodd" d="M26.742 40.064a46.804 46.804 0 01-3.339 1.706c-.539-.385-1.091-.743-1.638-1.113a33.896 33.896 0 01-2.102-1.549 37.571 37.571 0 01-3.855-3.526 37.15 37.15 0 01-6.057-8.5 37.165 37.165 0 01-3.47-9.855 38.63 38.63 0 01-.679-9.632 37.124 37.124 0 017.35-2.98 36.62 36.62 0 018.617-1.376 37.977 37.977 0 014.375.087c1.456.104 2.883.291 4.337.47 2.188.268 5.804.853 8.898 1.575-2.127-1.624-4.896-3.234-8.348-4.214-1.516-.43-3.087-.616-4.653-.753a40.783 40.783 0 00-4.714-.118l-.075.003c-3.12.11-6.228.594-9.24 1.434a39.159 39.159 0 00-8.718 3.622l-.697.392-.064.806a41.277 41.277 0 00-.126 2.832c-.001.945.017 1.89.074 2.834.109 1.887.352 3.767.729 5.62a40.176 40.176 0 003.785 10.644 40.09 40.09 0 006.568 9.153c1.3 1.36 2.68 2.646 4.168 3.79 1.27.978 2.9 2 4.057 2.693.853.511 1.448.843 1.448.843l.542-.454a35.793 35.793 0 001.937-1.54 32.825 32.825 0 001.803-1.677 30.787 30.787 0 001.659-1.802 26.163 26.163 0 001.488-1.93c-.675.447-1.342.889-2.02 1.306a51.74 51.74 0 01-2.04 1.209z" fill="red"/></svg>