<svg width="600" height="344" viewBox="0 0 600 344" fill="none" xmlns="http://www.w3.org/2000/svg">
<g filter="url(#filter0_f_4_3362)">
<path d="M-2.82031 27.2288L597.809 109.541V337.685H-2.82031V27.2288Z" fill="#3498FE"/>
</g>
<path d="M-2.82031 27.2288L597.809 109.541V337.685H-2.82031V27.2288Z" fill="#232C3B"/>
<g filter="url(#filter1_f_4_3362)">
<path d="M606.312 11L6.69238 93.3122V321.456H606.312V11Z" fill="#3498FE"/>
</g>
<path d="M606.312 11L6.69238 93.3122V321.456H606.312V11Z" fill="#232C3B"/>
<g filter="url(#filter2_f_4_3362)">
<path d="M598.73 33.9578L-0.888672 116.27V344.414H598.73V33.9578Z" fill="#3498FE"/>
</g>
<path d="M598.73 33.9578L-0.888672 116.27V344.414H598.73V33.9578Z" fill="#232C3B"/>
<g filter="url(#filter3_f_4_3362)">
<path d="M-2.31152 242.038H598.473V51.6969L298.075 92.2165L-2.31152 51.6969V242.038Z" fill="#3498FE"/>
</g>
<path d="M-2.31152 242.038V342.97H298.075H598.473V242.038V51.697L298.075 92.2164L-2.31152 51.697V242.038Z" fill="url(#paint0_linear_4_3362)"/>
<defs>
<filter id="filter0_f_4_3362" x="-13.8203" y="16.2288" width="622.629" height="332.456" filterUnits="userSpaceOnUse" color-interpolation-filters="sRGB">
<feFlood flood-opacity="0" result="BackgroundImageFix"/>
<feBlend mode="normal" in="SourceGraphic" in2="BackgroundImageFix" result="shape"/>
<feGaussianBlur stdDeviation="5.5" result="effect1_foregroundBlur_4_3362"/>
</filter>
<filter id="filter1_f_4_3362" x="-4.30762" y="0" width="621.619" height="332.456" filterUnits="userSpaceOnUse" color-interpolation-filters="sRGB">
<feFlood flood-opacity="0" result="BackgroundImageFix"/>
<feBlend mode="normal" in="SourceGraphic" in2="BackgroundImageFix" result="shape"/>
<feGaussianBlur stdDeviation="5.5" result="effect1_foregroundBlur_4_3362"/>
</filter>
<filter id="filter2_f_4_3362" x="-11.8887" y="22.9578" width="621.619" height="332.456" filterUnits="userSpaceOnUse" color-interpolation-filters="sRGB">
<feFlood flood-opacity="0" result="BackgroundImageFix"/>
<feBlend mode="normal" in="SourceGraphic" in2="BackgroundImageFix" result="shape"/>
<feGaussianBlur stdDeviation="5.5" result="effect1_foregroundBlur_4_3362"/>
</filter>
<filter id="filter3_f_4_3362" x="-13.3115" y="40.6969" width="622.784" height="212.341" filterUnits="userSpaceOnUse" color-interpolation-filters="sRGB">
<feFlood flood-opacity="0" result="BackgroundImageFix"/>
<feBlend mode="normal" in="SourceGraphic" in2="BackgroundImageFix" result="shape"/>
<feGaussianBlur stdDeviation="5.5" result="effect1_foregroundBlur_4_3362"/>
</filter>
<linearGradient id="paint0_linear_4_3362" x1="298.081" y1="200.758" x2="298.081" y2="94.1177" gradientUnits="userSpaceOnUse">
<stop stop-color="#1C1E27"/>
<stop offset="1" stop-color="#232C3B"/>
</linearGradient>
</defs>
</svg>
