<svg width="271.402344" height="64.066086" viewBox="0 0 271.402 64.0661" fill="none" xmlns="http://www.w3.org/2000/svg" xmlns:xlink="http://www.w3.org/1999/xlink">
	<desc>
			Created with Pixso.
	</desc>
	<defs>
		<clipPath id="clip4_3622">
			<rect id="Logo" width="30.000000" height="30.000000" transform="translate(16.000000 17.033203)" fill="white" fill-opacity="0"/>
		</clipPath>
		<clipPath id="clip4_3626">
			<rect id="Component 185" width="20.000000" height="20.000000" transform="translate(235.402344 22.033203)" fill="white" fill-opacity="0"/>
		</clipPath>
		<linearGradient id="paint_linear_12_941_0" x1="43.093201" y1="47.804321" x2="22.966093" y2="20.044069" gradientUnits="userSpaceOnUse">
			<stop stop-color="#FFFFFF" stop-opacity="0.678431"/>
			<stop offset="1.000000" stop-color="#FFFFFF" stop-opacity="0.000000"/>
		</linearGradient>
	</defs>
	<rect id="Install app" rx="8.000000" width="271.402405" height="64.066086" fill="#1C1E27" fill-opacity="1.000000"/>
	<rect id="Logo" width="30.000000" height="30.000000" transform="translate(16.000000 17.033203)" fill="#FFFFFF" fill-opacity="0"/>
	<g clip-path="url(#clip4_3622)">
		<g opacity="0.200000">
			<path id="Ellipse 1" d="M46.075 31.6108C46.075 40.1284 39.4001 47.0332 31.166 47.0332C22.9321 47.0332 16.2571 40.1284 16.2571 31.6108C16.2571 23.0933 22.9321 16.1885 31.166 16.1885C39.4001 16.1885 46.075 23.0933 46.075 31.6108Z" fill="url(#paint_linear_12_941_0)" fill-opacity="1.000000" fill-rule="nonzero"/>
		</g>
		<path id="Subtract" d="M28.8125 43.788C37.4797 43.788 44.5061 36.5197 44.5061 27.5539C44.5061 26.1196 44.3264 24.7289 43.9888 23.4043C44.1333 23.6603 44.2712 23.9209 44.4021 24.1859C45.6968 26.806 46.2595 29.7467 46.0273 32.6786C45.7485 36.2857 44.2664 39.6809 41.834 42.2845C39.4014 44.8881 36.1697 46.5386 32.6902 46.9541C29.6506 47.2685 26.5916 46.6016 23.9341 45.0455C21.8628 43.8326 20.115 42.126 18.8289 40.08C21.5417 42.3964 25.02 43.788 28.8125 43.788Z" fill="#FFFFFF" fill-opacity="1.000000" fill-rule="evenodd"/>
	</g>
	<path id="MONIXBET App" d="M80.2129 18.3965L80.2129 30.0332L82.5996 30.0332L82.5996 22.4316L82.6973 22.4316L85.7051 29.9746L87.3301 29.9746L90.3418 22.459L90.4395 22.459L90.4395 30.0332L92.8262 30.0332L92.8262 18.3965L89.791 18.3965L86.5879 26.2168L86.4512 26.2168L83.248 18.3965L80.2129 18.3965ZM105.541 24.2168C105.541 20.4082 103.177 18.2363 100.091 18.2363C96.9899 18.2363 94.6461 20.4082 94.6461 24.2168C94.6461 28.0059 96.9899 30.1934 100.091 30.1934C103.177 30.1934 105.541 28.0215 105.541 24.2168ZM103.048 24.2168C103.048 26.6816 101.877 28.0176 100.091 28.0176C98.3024 28.0176 97.1383 26.6816 97.1383 24.2168C97.1383 21.748 98.3024 20.4121 100.091 20.4121C101.877 20.4121 103.048 21.748 103.048 24.2168ZM117.095 18.3965L114.646 18.3965L114.646 25.7168L114.54 25.7168L109.521 18.3965L107.361 18.3965L107.361 30.0332L109.822 30.0332L109.822 22.709L109.907 22.709L114.97 30.0332L117.095 30.0332L117.095 18.3965ZM121.583 18.3965L119.122 18.3965L119.122 30.0332L121.583 30.0332L121.583 18.3965ZM125.915 18.3965L123.126 18.3965L126.7 24.2168L123.06 30.0332L125.876 30.0332L128.263 26.0605L128.353 26.0605L130.74 30.0332L133.572 30.0332L129.939 24.2168L133.49 18.3965L130.712 18.3965L128.353 22.3613L128.263 22.3613L125.915 18.3965ZM135.042 30.0332L140.015 30.0332C142.628 30.0332 144.019 28.6699 144.019 26.8184C144.019 25.0957 142.785 24.0566 141.464 23.9941L141.464 23.8809C142.671 23.6074 143.566 22.748 143.566 21.3809C143.566 19.6348 142.269 18.3965 139.703 18.3965L135.042 18.3965L135.042 30.0332ZM137.503 28.0215L137.503 24.9316L139.566 24.9316C140.746 24.9316 141.48 25.6113 141.48 26.5723C141.48 27.4473 140.882 28.0215 139.507 28.0215L137.503 28.0215ZM137.503 23.2676L137.503 20.3848L139.371 20.3848C140.464 20.3848 141.081 20.9473 141.081 21.7871C141.081 22.709 140.331 23.2676 139.328 23.2676L137.503 23.2676ZM145.616 30.0332L153.48 30.0332L153.48 28.0059L148.077 28.0059L148.077 25.2246L153.054 25.2246L153.054 23.1973L148.077 23.1973L148.077 20.4238L153.456 20.4238L153.456 18.3965L145.616 18.3965L145.616 30.0332ZM154.972 20.4238L158.535 20.4238L158.535 30.0332L160.968 30.0332L160.968 20.4238L164.531 20.4238L164.531 18.3965L154.972 18.3965L154.972 20.4238ZM171.825 30.0332L172.688 27.3809L176.887 27.3809L177.751 30.0332L180.387 30.0332L176.376 18.3965L173.208 18.3965L169.188 30.0332L171.825 30.0332ZM173.313 25.459L174.747 21.0566L174.836 21.0566L176.27 25.459L173.313 25.459ZM181.787 30.0332L184.248 30.0332L184.248 26.2598L186.314 26.2598C188.99 26.2598 190.548 24.6621 190.548 22.3418C190.548 20.0293 189.021 18.3965 186.377 18.3965L181.787 18.3965L181.787 30.0332ZM184.248 24.2871L184.248 20.4082L185.904 20.4082C187.326 20.4082 188.013 21.1816 188.013 22.3418C188.013 23.4941 187.326 24.2871 185.916 24.2871L184.248 24.2871ZM192.15 30.0332L194.611 30.0332L194.611 26.2598L196.678 26.2598C199.354 26.2598 200.912 24.6621 200.912 22.3418C200.912 20.0293 199.385 18.3965 196.74 18.3965L192.15 18.3965L192.15 30.0332ZM194.611 24.2871L194.611 20.4082L196.268 20.4082C197.689 20.4082 198.377 21.1816 198.377 22.3418C198.377 23.4941 197.689 24.2871 196.279 24.2871L194.611 24.2871Z" fill="#3498FE" fill-opacity="1.000000" fill-rule="evenodd"/>
	<path id="Install and play" d="M81.7877 36.8511L80.5572 36.8511L80.5572 47.0332L81.7877 47.0332L81.7877 36.8511ZM85.2678 42.4395C85.2678 41.1064 86.0949 40.3511 87.2195 40.3511C88.3064 40.3511 88.9695 41.062 88.9695 42.2617L88.9695 47.0332L90.1418 47.0332L90.1418 42.1797C90.1418 40.2314 89.1028 39.2983 87.5578 39.2983C86.4026 39.2983 85.6882 39.8145 85.3293 40.5903L85.2302 40.5903L85.2302 39.3975L84.0954 39.3975L84.0954 47.0332L85.2678 47.0332L85.2678 42.4395ZM97.6993 41.1064C97.3301 40.0229 96.5064 39.2983 94.9922 39.2983C93.3824 39.2983 92.1895 40.2109 92.1895 41.5063C92.1895 42.5591 92.815 43.2632 94.2198 43.5913L95.4913 43.8921C96.2603 44.0698 96.626 44.439 96.626 44.9653C96.626 45.6216 95.9288 46.1582 94.835 46.1582C93.8746 46.1582 93.273 45.7446 93.0645 44.9243L91.9502 45.2046C92.2237 46.5 93.2935 47.1938 94.8555 47.1938C96.6294 47.1938 97.836 46.2231 97.836 44.9038C97.836 43.8408 97.1729 43.1709 95.8091 42.8359L94.6744 42.5591C93.772 42.3335 93.3619 42.0327 93.3619 41.4448C93.3619 40.7886 94.0591 40.3101 94.9922 40.3101C96.0176 40.3101 96.4415 40.8774 96.6431 41.4038L97.6993 41.1064ZM102.929 39.3975L101.299 39.3975L101.299 37.5688L100.123 37.5688L100.123 39.3975L98.9711 39.3975L98.9711 40.3921L100.123 40.3921L100.123 45.1636C100.123 46.4966 101.2 47.1323 102.194 47.1323C102.632 47.1323 102.909 47.0537 103.069 46.9922L102.83 45.9395C102.731 45.96 102.57 45.9976 102.31 45.9976C101.794 45.9976 101.299 45.8403 101.299 44.8457L101.299 40.3921L102.929 40.3921L102.929 39.3975ZM106.947 47.2109C108.276 47.2109 108.974 46.4966 109.213 45.9976L109.271 45.9976L109.271 47.0332L110.447 47.0332L110.447 42.002C110.447 39.5752 108.598 39.2983 107.62 39.2983C106.468 39.2983 105.156 39.6948 104.558 41.0859L105.672 41.4858C105.932 40.9287 106.543 40.3306 107.661 40.3306C108.741 40.3306 109.271 40.9048 109.271 41.8823L109.271 41.9233C109.271 42.4907 108.697 42.4395 107.302 42.6172C105.887 42.8018 104.339 43.1162 104.339 44.8662C104.339 46.3564 105.494 47.2109 106.947 47.2109ZM107.124 46.1582C106.191 46.1582 105.515 45.7412 105.515 44.9243C105.515 44.0288 106.328 43.752 107.244 43.6323C107.74 43.5742 109.073 43.4341 109.271 43.1948L109.271 44.2681C109.271 45.2251 108.516 46.1582 107.124 46.1582ZM113.765 36.8511L112.593 36.8511L112.593 47.0332L113.765 47.0332L113.765 36.8511ZM117.086 36.8511L115.914 36.8511L115.914 47.0332L117.086 47.0332L117.086 36.8511ZM125.421 47.2109C126.751 47.2109 127.448 46.4966 127.687 45.9976L127.745 45.9976L127.745 47.0332L128.921 47.0332L128.921 42.002C128.921 39.5752 127.072 39.2983 126.095 39.2983C124.943 39.2983 123.63 39.6948 123.032 41.0859L124.146 41.4858C124.406 40.9287 125.018 40.3306 126.136 40.3306C127.216 40.3306 127.745 40.9048 127.745 41.8823L127.745 41.9233C127.745 42.4907 127.171 42.4395 125.777 42.6172C124.362 42.8018 122.813 43.1162 122.813 44.8662C122.813 46.3564 123.969 47.2109 125.421 47.2109ZM125.599 46.1582C124.666 46.1582 123.989 45.7412 123.989 44.9243C123.989 44.0288 124.803 43.752 125.719 43.6323C126.214 43.5742 127.547 43.4341 127.745 43.1948L127.745 44.2681C127.745 45.2251 126.99 46.1582 125.599 46.1582ZM132.239 42.4395C132.239 41.1064 133.067 40.3511 134.191 40.3511C135.278 40.3511 135.941 41.062 135.941 42.2617L135.941 47.0332L137.113 47.0332L137.113 42.1797C137.113 40.2314 136.074 39.2983 134.529 39.2983C133.374 39.2983 132.66 39.8145 132.301 40.5903L132.202 40.5903L132.202 39.3975L131.067 39.3975L131.067 47.0332L132.239 47.0332L132.239 42.4395ZM142.145 47.1938C143.615 47.1938 144.114 46.2778 144.37 45.8608L144.51 45.8608L144.51 47.0332L145.645 47.0332L145.645 36.8511L144.473 36.8511L144.473 40.6108L144.37 40.6108C144.114 40.2109 143.656 39.2983 142.165 39.2983C140.234 39.2983 138.901 40.8296 138.901 43.2358C138.901 45.6626 140.234 47.1938 142.145 47.1938ZM142.302 46.1377C140.832 46.1377 140.077 44.8457 140.077 43.2153C140.077 41.6055 140.812 40.3511 142.302 40.3511C143.734 40.3511 144.49 41.5063 144.49 43.2153C144.49 44.9448 143.714 46.1377 142.302 46.1377ZM151.888 49.8975L153.06 49.8975L153.06 45.8608L153.163 45.8608C153.419 46.2778 153.918 47.1938 155.388 47.1938C157.299 47.1938 158.632 45.6626 158.632 43.2358C158.632 40.8296 157.299 39.2983 155.368 39.2983C153.877 39.2983 153.419 40.2109 153.163 40.6108L153.023 40.6108L153.023 39.3975L151.888 39.3975L151.888 49.8975ZM153.043 43.2153C153.043 41.5063 153.799 40.3511 155.231 40.3511C156.721 40.3511 157.456 41.6055 157.456 43.2153C157.456 44.8457 156.701 46.1377 155.231 46.1377C153.819 46.1377 153.043 44.9448 153.043 43.2153ZM161.592 36.8511L160.419 36.8511L160.419 47.0332L161.592 47.0332L161.592 36.8511ZM165.989 47.2109C167.319 47.2109 168.016 46.4966 168.255 45.9976L168.314 45.9976L168.314 47.0332L169.489 47.0332L169.489 42.002C169.489 39.5752 167.64 39.2983 166.663 39.2983C165.511 39.2983 164.198 39.6948 163.6 41.0859L164.714 41.4858C164.974 40.9287 165.586 40.3306 166.704 40.3306C167.784 40.3306 168.314 40.9048 168.314 41.8823L168.314 41.9233C168.314 42.4907 167.739 42.4395 166.345 42.6172C164.93 42.8018 163.381 43.1162 163.381 44.8662C163.381 46.3564 164.537 47.2109 165.989 47.2109ZM166.167 46.1582C165.234 46.1582 164.557 45.7412 164.557 44.9243C164.557 44.0288 165.371 43.752 166.287 43.6323C166.782 43.5742 168.115 43.4341 168.314 43.1948L168.314 44.2681C168.314 45.2251 167.558 46.1582 166.167 46.1582ZM172.112 49.8975C173.172 49.8975 173.917 49.3335 174.361 48.1475L177.601 39.3975L176.33 39.3975L174.221 45.4814L174.142 45.4814L172.034 39.3975L170.762 39.3975L173.585 47.0742L173.367 47.6689C172.939 48.8345 172.413 48.9438 171.555 48.7251L171.258 49.7573C171.377 49.8188 171.716 49.8975 172.112 49.8975Z" fill="#B4CCE4" fill-opacity="1.000000" fill-rule="evenodd"/>
	<rect id="Component 185" width="20.000000" height="20.000000" transform="translate(235.402344 22.033203)" fill="#FFFFFF" fill-opacity="0"/>
	<g clip-path="url(#clip4_3626)">
		<path id="Vector" d="M252.94 28.185C252.546 25.2989 250.094 23.1228 247.16 23.1228C245.273 23.1228 243.537 24.0103 242.434 25.5176C240.841 25.2161 239.311 26.2678 239.009 27.8442C236.977 28.1045 235.402 29.8294 235.402 31.9119C235.402 34.1735 237.242 36.0134 239.504 36.0134L243.645 36.0134L243.645 34.8416L239.504 34.8416C237.888 34.8416 236.574 33.5273 236.574 31.9119C236.574 30.2964 237.906 28.9822 239.543 28.9822L240.129 28.9822L240.129 28.3962C240.129 27.427 240.917 26.6384 241.887 26.6384C242.339 26.6384 242.587 26.7949 242.931 26.9038L243.182 26.5023C244.045 25.1199 245.532 24.2947 247.16 24.2947C249.59 24.2947 251.633 26.2044 251.811 28.6423L251.839 29.0284L252.205 29.1539C253.417 29.5688 254.23 30.6772 254.23 31.9119C254.23 33.5273 252.916 34.8416 251.301 34.8416L247.16 34.8416L247.16 36.0134L251.301 36.0134C253.562 36.0134 255.402 34.1735 255.402 31.9119C255.402 30.3014 254.427 28.8474 252.94 28.185Z" fill="#C9CBDF" fill-opacity="1.000000" fill-rule="nonzero"/>
		<path id="Vector" d="M245.988 38.7004L245.988 31.9119L244.816 31.9119L244.816 38.7004L243.473 37.3569L242.644 38.1856L245.402 40.9437L248.16 38.1856L247.332 37.3569L245.988 38.7004Z" fill="#C9CBDF" fill-opacity="1.000000" fill-rule="nonzero"/>
	</g>
</svg>
