<svg width="124" height="26" viewBox="0 0 124 26" fill="none" xmlns="http://www.w3.org/2000/svg">
<path d="M117.911 17.0617V6.20279H114.169V4.72791H123.184V6.20279H119.441V17.0617H117.911Z" fill="white"/>
<path d="M100.305 17.0615V4.72778H109.099V6.05518H101.835V10.148H108.214V11.5123H101.835V15.7157H109.099V17.0615H100.305Z" fill="white"/>
<path d="M83.4297 17.0617V4.72791H88.7024C91.2466 4.72791 92.7399 6.03687 92.7399 7.80673C92.7399 9.24475 92.0209 10.2403 91.0438 10.5537C92.7399 10.904 93.4036 12.2498 93.4036 13.6878C93.4036 15.6974 91.984 17.0617 89.0158 17.0617H83.4297ZM84.9599 9.90845H89.108C90.2326 9.90845 91.1728 9.3738 91.1728 8.0464C91.1728 6.62682 89.7533 6.09218 88.4443 6.09218H84.9599V9.90845ZM84.9599 15.6789H88.7762C90.6198 15.6789 91.8181 14.9231 91.8181 13.4666C91.8181 12.2314 91.0807 11.2912 88.9789 11.2912H84.9599V15.6789Z" fill="white"/>
<path d="M67.2122 17.0615L71.5631 10.8117L67.2675 4.72778H69.0926L72.4664 9.4843L75.8218 4.72778H77.5917L73.2961 10.7564L77.6654 17.0615H75.8218L72.4296 12.1391L69.0558 17.0615H67.2122Z" fill="white"/>
<path d="M59.4854 17.0615V4.72778H61.0155V17.0615H59.4854Z" fill="white"/>
<path d="M51.8039 17.4857L41.7563 8.0464V17.0617H40.2261V4.72791L50.2737 14.1672V4.72791H51.8039V17.4857Z" fill="white"/>
<path d="M0.457275 17.0615V4.72778L7.29707 11.8257L14.1184 4.72778L14.1369 17.0615H12.5882V8.19377L7.29707 13.9643L1.98747 8.19377V17.0615H0.457275Z" fill="white"/>
<path opacity="0.2" d="M33.9848 10.9775C33.9848 14.6139 31.0369 17.5618 27.4005 17.5618C23.7641 17.5618 20.8162 14.6139 20.8162 10.9775C20.8162 7.34109 23.7641 4.39319 27.4005 4.39319C31.0369 4.39319 33.9848 7.34109 33.9848 10.9775Z" fill="url(#paint0_linear_4_3487)"/>
<path fill-rule="evenodd" clip-rule="evenodd" d="M26.3615 16.1762C30.1893 16.1762 33.2924 13.0732 33.2924 9.24535C33.2924 8.63302 33.213 8.03925 33.0639 7.47375C33.1278 7.58307 33.1887 7.69433 33.2465 7.80746C33.8182 8.92604 34.0667 10.1815 33.9642 11.4333C33.8411 12.9732 33.1865 14.4228 32.1122 15.5344C31.038 16.6459 29.6107 17.3506 28.074 17.528C26.7317 17.6622 25.3807 17.3775 24.207 16.7131C23.2923 16.1953 22.5204 15.4667 21.9524 14.5932C23.1505 15.5821 24.6866 16.1762 26.3615 16.1762Z" fill="white"/>
<defs>
<linearGradient id="paint0_linear_4_3487" x1="32.6679" y1="17.891" x2="23.7791" y2="6.03927" gradientUnits="userSpaceOnUse">
<stop stop-color="white" stop-opacity="0.68"/>
<stop offset="1" stop-color="white" stop-opacity="0"/>
</linearGradient>
</defs>
</svg>
