<svg width="55" height="14" viewBox="0 0 55 14" fill="none" xmlns="http://www.w3.org/2000/svg">
<path d="M45.461 3.84079C45.3715 3.01973 44.6676 2.40526 43.8412 2.42656C42.5345 2.42656 42.2214 3.84079 42.2214 3.84079C42.673 3.46168 43.2523 3.26892 43.8412 3.30087C44.4312 3.26679 45.0105 3.45955 45.461 3.84079Z" fill="#F2A50A"/>
<path fill-rule="evenodd" clip-rule="evenodd" d="M17.0485 4.02487C17.0485 4.02487 16.6385 5.10471 16.368 5.78414C16.0112 6.70211 15.564 7.87248 15.2882 8.59663L14.6077 10.3453C14.5054 10.6147 14.0944 11.6892 13.4852 13.2653L13.3074 13.7349H15.2285L15.3307 13.4762C15.4436 13.2014 15.6438 12.6881 15.8707 12.1162C15.9463 11.9224 16.0112 11.7595 16.0219 11.7488C16.0325 11.7382 16.4425 11.7488 18.008 11.7488H20.0047L20.3881 12.7531L20.7715 13.7626H22.6926C22.6926 13.7626 22.5095 13.2717 22.2773 12.6828L21.1389 9.71375C20.7396 8.67757 20.3881 7.7596 20.3562 7.68398L19.6331 5.79479L18.926 4.01316H17.9867C17.6736 3.99825 17.3605 4.0025 17.0485 4.02487ZM25.0419 4.02487C25.0419 4.02487 25.0099 4.21869 24.9663 4.45084C24.8747 4.99076 24.7075 5.97796 24.6585 6.23248C24.5126 7.08017 24.421 7.63074 24.3997 7.75427C24.3784 7.8778 24.3241 8.18557 24.2645 8.53167C24.2049 8.87778 24.1452 9.22814 24.1292 9.30907C24.1133 9.39001 24.0749 9.63282 24.0377 9.849C24.0004 10.0652 23.9567 10.308 23.9407 10.3889C23.9248 10.4699 23.8918 10.6637 23.8651 10.8202C23.8385 10.9768 23.8055 11.1823 23.7895 11.2845C23.7736 11.3868 23.7352 11.5763 23.7139 11.7105C23.6926 11.8457 23.649 12.0939 23.6223 12.2504C23.5957 12.407 23.552 12.6551 23.5254 12.7903C23.4988 12.9256 23.4605 13.1897 23.4285 13.3782C23.3966 13.5667 23.3636 13.7349 23.3636 13.7403C23.3636 13.7456 23.7736 13.7403 24.2698 13.7403H25.1707L25.1974 13.5624C25.1974 13.4655 25.2517 13.2493 25.2836 13.0821C25.3156 12.9149 25.3805 12.4996 25.4402 12.1535C25.5701 11.4145 25.6233 11.1014 25.699 10.6903C25.7746 10.2803 25.9418 9.26541 26.0014 8.947C26.0014 8.79045 26.061 8.57959 26.077 8.48268C26.093 8.38577 26.1366 8.1483 26.1686 7.94276C26.2005 7.73723 26.2282 7.60305 26.2336 7.60305C26.2389 7.60305 26.6979 8.97895 27.2591 10.6583L28.274 13.719H29.8937L30.0013 13.4059C30.0875 13.1631 30.7627 11.1493 30.9299 10.653C31.4432 9.12058 31.9554 7.60837 31.9608 7.60305C31.965 7.63393 31.965 7.66482 31.9608 7.69463C31.9608 7.74895 31.998 7.93744 32.0311 8.10996C32.063 8.28248 32.112 8.6009 32.1503 8.8224L32.2579 9.44326C32.2952 9.67541 32.3825 10.1823 32.49 10.8255C32.5976 11.4677 32.9054 13.2547 32.965 13.5944V13.7296H34.752L34.6764 13.2706C34.6327 13.0172 34.5092 12.2664 34.3952 11.6083C34.1311 10.0375 33.9639 9.05029 33.8127 8.127L33.489 6.21118C33.3814 5.56902 33.2568 4.81292 33.2078 4.53284C33.1588 4.2517 33.1215 3.99292 33.1215 3.99292C33.1215 3.99292 32.7872 3.99292 32.2206 3.99292H31.3197L31.0875 4.69471L29.1824 10.5614C29.1611 10.637 29.1344 10.7116 29.1014 10.7829L28.9012 10.1834C28.7883 9.849 28.3943 8.65627 28.0163 7.52212L27.0983 4.74264L26.8555 4.01422H25.0419V4.02487ZM35.7828 4.93645V5.85443H37.3643C37.8893 5.8278 38.4153 5.8278 38.9404 5.85443L38.8434 6.08658C38.7891 6.19947 38.6709 6.46996 38.5847 6.67443C38.4984 6.87996 38.3738 7.14939 38.3206 7.27931C38.2673 7.40923 38.18 7.5924 38.1374 7.69996C38.0937 7.80752 38.0021 7.99707 37.9489 8.12593C37.8946 8.25585 37.8083 8.44967 37.7604 8.55723L36.6806 10.9757C35.6369 13.3569 35.4804 13.719 35.4804 13.7296H41.4174V11.9597H39.7976C38.9073 11.9597 38.1779 11.9597 38.1779 11.9597C38.1779 11.9597 38.2215 11.8521 38.2748 11.7275C38.377 11.4847 38.8743 10.3516 39.1384 9.75209C39.2247 9.54123 39.3216 9.33144 39.344 9.27713C39.3663 9.22281 39.5058 8.90972 39.6464 8.58066C40.2289 7.24204 40.3216 7.0365 40.3642 6.96089C40.4078 6.88528 40.4834 6.69147 40.5697 6.48593L41.2172 5.01206C41.3301 4.74796 41.6325 4.06214 41.6378 4.04084C41.6432 4.01954 41.0553 4.04084 38.7018 4.04084H35.7605L35.7828 4.93645ZM42.9296 8.88736V13.7456H44.7645V4.03019H42.9296V8.88736ZM46.2277 4.03019L47.6206 6.15687L48.5162 7.52212L49.299 8.72017L49.1584 8.93102C49.0775 9.0439 48.8347 9.42196 48.6185 9.76274C48.4023 10.1025 48.1382 10.5018 48.0413 10.6424L47.3725 11.6679C47.0914 12.0939 46.7953 12.5422 46.7144 12.6721C46.6334 12.8021 46.4396 13.0928 46.2884 13.3143L46.0243 13.7243C46.0243 13.7243 46.4939 13.7243 47.0711 13.7243H48.118L48.3341 13.3899L49.4513 11.6892C49.9422 10.9331 50.3522 10.3186 50.3575 10.3186L50.9571 11.2196C51.2808 11.7158 51.6099 12.2185 51.6855 12.342L51.9496 12.7414C52.0092 12.8383 52.1818 13.0981 52.3276 13.3186L52.5918 13.7232H53.6333C54.6535 13.7232 54.6694 13.7232 54.6588 13.7232C54.6481 13.7232 54.6215 13.6636 54.5938 13.621L54.1679 12.9735C53.9623 12.6604 53.7142 12.2824 53.6279 12.1312C53.5417 11.9799 53.121 11.3644 52.7217 10.7489L51.809 9.36125L51.5172 8.91292L51.4044 8.73507L51.6802 8.3091L54.1306 4.56266L54.4437 4.08238L54.4927 4.01209H52.3915L52.186 4.3305L51.7324 5.02165L51.1924 5.81502L50.7718 6.46251L50.48 6.91084L50.3341 7.13235L50.2798 7.05141L50.0103 6.63609L49.0445 5.15689L48.2937 4.00676H46.2053L46.2277 4.03019ZM18.0623 6.72874C18.0943 6.80435 18.1869 7.0365 18.2625 7.26866C18.3381 7.50082 18.5266 7.94383 18.6725 8.34851C19.1209 9.50928 19.288 9.94058 19.288 9.96827C19.288 9.99596 18.7481 9.96827 17.9931 9.96827C17.566 10.0119 17.1358 10.0119 16.7088 9.96827L16.7684 9.70417C16.8004 9.61258 16.876 9.42302 16.9303 9.28352C16.9846 9.14294 17.1241 8.79791 17.2327 8.51144C17.3403 8.22497 17.4968 7.84266 17.5724 7.64778C17.648 7.45396 17.7663 7.14087 17.8419 6.94598C17.9175 6.75217 17.9824 6.59562 17.9878 6.59562C18.0165 6.6478 18.0421 6.70212 18.0634 6.75749V6.72874H18.0623Z" fill="white"/>
<path d="M13.9009 6.88528H7.20246V9.26541H11.0618C10.7572 9.97252 10.2503 10.5742 9.60495 10.9927C8.93191 11.375 8.16516 11.5614 7.39201 11.5327C6.12581 11.5635 4.90113 11.0811 3.997 10.194C3.10246 9.35593 2.60087 8.1813 2.61472 6.95556C2.59448 5.75964 3.07583 4.61058 3.94269 3.78738C4.81594 2.92159 6.00547 2.44983 7.23547 2.48071C8.74874 2.4839 10.1875 3.13671 11.1864 4.27299L12.968 2.5084C12.2779 1.71822 11.4281 1.08351 10.4739 0.645825C9.4484 0.216657 8.34726 -0.00271778 7.23547 0.00367182C5.17908 -0.064484 3.20043 0.788529 1.83838 2.33055C1.54126 2.66388 1.27822 3.02596 1.05033 3.4104C0.976847 3.71071 0.871418 4.00144 0.737236 4.27939C0.577496 4.54668 0.455029 4.83634 0.375158 5.13772C0.235652 5.75645 0.158977 6.38796 0.148327 7.02159C0.138743 7.33788 0.162171 7.65416 0.218613 7.96619C0.272925 8.27395 0.364509 8.57107 0.445444 8.86712C0.563652 9.46562 0.795808 10.0354 1.13126 10.5455C1.31017 10.7233 1.45713 10.932 1.56256 11.161L1.59983 11.1983C1.77768 11.4251 1.98853 11.636 2.18768 11.8457C2.39108 12.063 2.60513 12.2707 2.82983 12.4666C3.04069 12.6402 3.26859 12.7914 3.51033 12.9203C3.75526 13.0832 4.01404 13.2259 4.2824 13.3462C4.50924 13.4272 4.7137 13.5518 4.94053 13.6274C5.06087 13.6572 5.1844 13.6678 5.30794 13.6593C5.42188 13.6636 5.53583 13.6774 5.64765 13.703C5.89046 13.7467 6.12794 13.8159 6.37607 13.8382C6.6242 13.8595 6.94261 13.8382 7.22375 13.8382C7.78391 13.8319 8.343 13.7701 8.89144 13.6551C9.41646 13.5667 9.92549 13.4037 10.4026 13.1695C10.8616 12.9575 11.2875 12.6796 11.6656 12.3441C12.0192 11.9938 12.3322 11.604 12.5995 11.1834C12.7348 10.9672 12.8913 10.7521 13.0149 10.5306C13.1192 10.309 13.2066 10.0801 13.2737 9.84474C13.3599 9.60193 13.4739 9.36977 13.5601 9.12164C13.6464 8.87351 13.722 8.65201 13.8189 8.42517C13.8253 8.39749 13.8434 8.37406 13.8679 8.36021C13.9115 8.06203 13.9328 7.76066 13.9328 7.45928L13.9009 6.88528Z" fill="white"/>
<path d="M12.4492 9.81574C11.3864 10.7199 10.1479 11.394 8.81142 11.7965C7.39186 12.1522 5.92438 12.2704 4.46649 12.1469C2.87973 12.017 1.8968 11.6772 2.0001 11.7848C2.46547 12.2992 3.01285 12.7337 3.61986 13.0691C4.75508 13.6804 6.02874 13.9882 7.31732 13.9647C8.4962 13.9945 9.6623 13.7113 10.6964 13.1447C11.6772 12.5718 12.4854 11.7454 13.0392 10.7539C13.4812 10.001 13.7698 9.16825 13.8869 8.30353C13.4535 8.8509 12.9732 9.35675 12.4492 9.81574Z" fill="url(#paint0_linear_4_3553)"/>
<path d="M1.72915 2.39989C1.16261 3.0495 0.728113 3.80241 0.450165 4.61815C0.0263208 5.78958 -0.0759129 7.05366 0.153048 8.27727C0.279775 8.97906 0.516191 9.65742 0.85484 10.2847C1.09658 10.7319 1.38944 11.1483 1.72915 11.5264C2.18601 12.094 2.73339 12.5828 3.34892 12.9726C3.95913 13.3421 4.63003 13.6041 5.3297 13.7446C4.54484 13.061 3.87074 12.2601 3.33294 11.3698C2.80687 10.4891 2.4139 9.53708 2.16684 8.54137C1.85801 7.19103 1.78666 5.7981 1.95598 4.42327C2.16684 2.89615 2.43627 1.69171 2.43627 1.69171C2.18388 1.91109 1.94746 2.1475 1.72915 2.39989Z" fill="url(#paint1_linear_4_3553)"/>
<defs>
<linearGradient id="paint0_linear_4_3553" x1="2.60585" y1="13.0723" x2="14.2538" y2="10.4059" gradientUnits="userSpaceOnUse">
<stop offset="0.01" stop-color="white"/>
<stop offset="1" stop-color="#F2A50A"/>
</linearGradient>
<linearGradient id="paint1_linear_4_3553" x1="1.1316" y1="2.9524" x2="3.08553" y2="12.7382" gradientUnits="userSpaceOnUse">
<stop stop-color="white"/>
<stop offset="1" stop-color="#F2A50A"/>
</linearGradient>
</defs>
</svg>
