<svg width="30" height="30" viewBox="0 0 30 30" fill="none" xmlns="http://www.w3.org/2000/svg">
<g clip-path="url(#clip0_820_2987)">
<path d="M29.439 5.53923C29.4391 4.88534 29.3104 4.23783 29.0602 3.6337C28.8101 3.02956 28.4433 2.48063 27.9809 2.01826C27.5186 1.55589 26.9696 1.18914 26.3655 0.938957C25.7614 0.688773 25.1139 0.560059 24.46 0.560164C24.46 0.560164 20.5124 0 14.9996 0C9.48678 0 5.53923 0.560164 5.53923 0.560164C4.88534 0.560059 4.23783 0.688773 3.6337 0.938957C3.02956 1.18914 2.48063 1.55589 2.01826 2.01826C1.55589 2.48063 1.18914 3.02956 0.938959 3.6337C0.688775 4.23783 0.560059 4.88534 0.560164 5.53923C0.560164 5.53923 0 9.16669 0 14.9996C0 20.8325 0.560164 24.46 0.560164 24.46C0.560059 25.1139 0.688775 25.7614 0.938959 26.3655C1.18914 26.9696 1.55589 27.5186 2.01826 27.9809C2.48063 28.4433 3.02956 28.8101 3.6337 29.0602C4.23783 29.3104 4.88534 29.4391 5.53923 29.439C5.53923 29.439 9.66444 29.9992 15.042 29.9992C15.3013 29.9992 15.5568 29.9992 15.8086 29.9992C15.8086 26.3181 15.8086 22.6354 15.8086 18.9512V18.6047H11.8307V13.7088H15.8094V13.3975C15.8094 12.1492 15.7974 10.9016 15.8158 9.65403C15.8302 8.61373 15.9959 7.60143 16.4248 6.64435C17.2355 4.83662 18.6519 3.78271 20.5788 3.48342C21.5015 3.34018 22.4562 3.37619 23.3957 3.38179C24.1199 3.38659 24.8433 3.47062 25.5843 3.52103V7.93032C25.4915 7.93032 25.3962 7.93032 25.3018 7.93032C24.3775 7.94473 23.4517 7.92313 22.5306 7.98474C21.4295 8.05757 20.8173 8.65214 20.7701 9.74526C20.7149 11.0352 20.7517 12.3292 20.7493 13.6224C20.7493 13.6376 20.7629 13.6528 20.7813 13.6928H25.189C24.9849 15.3365 24.7849 16.9514 24.5816 18.5878H20.7613C20.7525 18.6871 20.7413 18.7631 20.7413 18.8399C20.7413 22.4922 20.7413 26.1445 20.7413 29.7967C23.03 29.6367 24.4576 29.4382 24.4576 29.4382C25.1114 29.4387 25.7589 29.3103 26.3631 29.0604C26.9673 28.8106 27.5164 28.4442 27.979 27.9821C28.4415 27.5201 28.8086 26.9714 29.0591 26.3675C29.3096 25.7636 29.4387 25.1162 29.439 24.4624C29.439 24.4624 29.9992 20.8701 29.9992 15.002C29.9992 9.13388 29.439 5.53923 29.439 5.53923Z" fill="white"/>
</g>
<defs>
<clipPath id="clip0_820_2987">
<rect width="30" height="30" fill="white"/>
</clipPath>
</defs>
</svg>
