<svg width="30" height="30" viewBox="0 0 30 30" fill="none" xmlns="http://www.w3.org/2000/svg">
<g clip-path="url(#clip0_820_2989)">
<path d="M29.4398 5.53923C29.4398 4.2187 28.9153 2.95225 27.9815 2.0185C27.0477 1.08474 25.7813 0.560164 24.4608 0.560164C24.4608 0.560164 20.5124 0 14.9996 0C9.48678 0 5.53922 0.560164 5.53922 0.560164C4.21869 0.560164 2.95225 1.08474 2.0185 2.0185C1.08474 2.95225 0.560164 4.2187 0.560164 5.53923C0.560164 5.53923 0 9.16669 0 14.9996C0 20.8325 0.560164 24.46 0.560164 24.46C0.560164 25.7805 1.08474 27.0469 2.0185 27.9807C2.95225 28.9145 4.21869 29.439 5.53922 29.439C5.53922 29.439 9.66523 29.9992 15.0428 29.9992C20.4204 29.9992 24.4608 29.439 24.4608 29.439C25.7813 29.439 27.0477 28.9145 27.9815 27.9807C28.9153 27.0469 29.4398 25.7805 29.4398 24.46C29.4398 24.46 30 20.8677 30 14.9996C30 9.13148 29.4398 5.53923 29.4398 5.53923ZM25.1746 8.92342C24.481 12.2129 23.7808 15.5013 23.074 18.7887C22.7075 20.5044 22.3399 22.2201 21.9712 23.9358C21.9608 23.9862 21.9456 24.0359 21.932 24.0855C21.6039 25.2706 20.7189 25.2402 20.0067 24.7257C18.3494 23.5373 16.7121 22.3249 15.066 21.1174L14.874 20.9798C14.8219 21.023 14.7707 21.0598 14.7243 21.1062C13.8782 21.9123 13.0329 22.7184 12.1884 23.5245C12.0726 23.6432 11.933 23.7359 11.7788 23.7968C11.6246 23.8576 11.4593 23.8851 11.2937 23.8774C11.3225 23.4237 11.3497 22.9843 11.3801 22.545C11.4642 21.3591 11.5538 20.1723 11.6298 18.9856C11.6297 18.8664 11.6553 18.7486 11.7051 18.6403C11.7548 18.532 11.8274 18.4357 11.9179 18.3582C15.0276 15.5803 18.1312 12.7963 21.2286 10.0061C21.2898 9.96343 21.3438 9.9113 21.3887 9.85169C21.4327 9.77166 21.4935 9.65803 21.4639 9.60442C21.4342 9.57099 21.3969 9.54528 21.355 9.52953C21.3132 9.51377 21.2682 9.50844 21.2238 9.51399C21.0373 9.55184 20.8579 9.6191 20.6925 9.71325C17.9605 11.4145 15.2306 13.1217 12.5029 14.8348C11.3025 15.5862 10.1022 16.3416 8.89541 17.0874C8.79874 17.1437 8.68423 17.1608 8.57532 17.1354C6.91163 16.6265 5.25114 16.1071 3.58985 15.5902C3.25135 15.4853 2.94326 15.3389 2.76081 15.0116V14.6995C3.02169 14.2826 3.43541 14.0777 3.87154 13.9105L21.3911 7.20451C22.2238 6.88442 23.0572 6.56619 23.891 6.24983C24.0002 6.20479 24.1132 6.16971 24.2287 6.145C24.9425 6.01936 25.4923 6.43389 25.4595 7.1589C25.4283 7.75107 25.2962 8.34165 25.1746 8.92342Z" fill="white"/>
</g>
<defs>
<clipPath id="clip0_820_2989">
<rect width="30" height="30" fill="white"/>
</clipPath>
</defs>
</svg>
