<svg width="41" height="40" viewBox="0 0 41 40" fill="none" xmlns="http://www.w3.org/2000/svg">
<rect x="0.5" width="40" height="40" rx="20" fill="black" fill-opacity="0.4"/>
<path fill-rule="evenodd" clip-rule="evenodd" d="M17.43 14.5C16.6559 14.4973 15.9124 14.8022 15.363 15.3475C14.8136 15.8928 14.5032 16.6339 14.5 17.408C14.5 19.548 15.976 21.569 17.681 23.156C18.5542 23.9626 19.4976 24.6899 20.5 25.329C21.5024 24.6895 22.4458 23.962 23.319 23.155C25.024 21.57 26.5 19.55 26.5 17.409C26.4971 16.6347 26.1868 15.8933 25.6373 15.3478C25.0879 14.8023 24.3443 14.4973 23.57 14.5C23.1306 14.4991 22.6967 14.5971 22.3003 14.7866C21.9039 14.9762 21.5552 15.2525 21.28 15.595L20.5 16.564L19.72 15.595C19.4448 15.2525 19.0961 14.9762 18.6997 14.7866C18.3033 14.5971 17.8694 14.4991 17.43 14.5ZM20.5 26.5L20.01 27.371H20.009L20.007 27.37L20.001 27.367L19.982 27.356C19.5941 27.1267 19.2139 26.8845 18.842 26.63C17.953 26.0226 17.1097 25.3508 16.319 24.62C14.524 22.95 12.5 20.424 12.5 17.408C12.5 14.692 14.712 12.5 17.43 12.5C18.59 12.5 19.658 12.9 20.5 13.568C21.373 12.8748 22.4553 12.4983 23.57 12.5C26.288 12.5 28.5 14.692 28.5 17.408C28.5 20.424 26.476 22.949 24.681 24.62C23.5775 25.6393 22.3725 26.543 21.085 27.317L21.018 27.356L20.999 27.366L20.993 27.37L20.991 27.371L20.5 26.5ZM20.5 26.5L20.99 27.372L20.5 27.647L20.01 27.371L20.5 26.5Z" fill="white"/>
</svg>
