<svg width="11" height="15" viewBox="0 0 11 15" fill="none" xmlns="http://www.w3.org/2000/svg">
<path d="M10 5.46934C10 7.07309 8.23816 10.1014 6.9193 12.2952C6.30703 13.3135 6.00094 13.8227 5.5 13.8227C4.99906 13.8227 4.69297 13.3135 4.0807 12.2952C2.76187 10.1014 1 7.07309 1 5.46934C1 2.90634 3.01472 0.828613 5.5 0.828613C7.98526 0.828613 10 2.90634 10 5.46934Z" stroke="white" stroke-linecap="round" stroke-linejoin="round"/>
<path d="M8 5.70123C8 7.19631 6.8807 8.40833 5.5 8.40833C4.1193 8.40833 3 7.19631 3 5.70123C3 4.20615 4.1193 2.99414 5.5 2.99414C6.8807 2.99414 8 4.20615 8 5.70123Z" stroke="white" stroke-linecap="round" stroke-linejoin="round"/>
</svg>
