<svg width="17" height="19" viewBox="0 0 17 19" fill="none" xmlns="http://www.w3.org/2000/svg">
<path d="M7.40488 2.00067C7.45814 1.88787 7.54236 1.79253 7.64772 1.72576C7.75309 1.65899 7.87526 1.62354 8 1.62354C8.12474 1.62354 8.24692 1.65899 8.35228 1.72576C8.45765 1.79253 8.54187 1.88787 8.59513 2.00067L10.7124 6.61317L15.8548 7.15767C16.4139 7.21617 16.64 7.89342 16.2226 8.26242L12.3875 11.6565L13.4484 16.6054C13.5631 17.1432 12.9736 17.5617 12.4865 17.2883L8 14.7739L3.51238 17.2883C3.02525 17.5628 2.43575 17.1432 2.5505 16.6054L3.6125 11.6565L-0.223748 8.26242C-0.639998 7.89342 -0.414998 7.21617 0.144127 7.15767L5.28538 6.61317L7.40375 2.00067H7.40488Z" fill="#FF691D"/>
</svg>
