<svg width="44" height="44" viewBox="0 0 44 44" fill="none" xmlns="http://www.w3.org/2000/svg">
<rect width="44" height="44" rx="22" fill="white"/>
<path d="M27.8333 21.9998C27.8333 23.2832 28.8833 24.3332 30.1667 24.3332C31.45 24.3332 32.5 23.2832 32.5 21.9998C32.5 20.7165 31.45 19.6665 30.1667 19.6665C28.8833 19.6665 27.8333 20.7165 27.8333 21.9998ZM24.3333 21.9998C24.3333 20.7165 23.2833 19.6665 22 19.6665C20.7167 19.6665 19.6667 20.7165 19.6667 21.9998C19.6667 23.2832 20.7167 24.3332 22 24.3332C23.2833 24.3332 24.3333 23.2832 24.3333 21.9998ZM13.8333 19.6665C15.1167 19.6665 16.1667 20.7165 16.1667 21.9998C16.1667 23.2832 15.1167 24.3332 13.8333 24.3332C12.55 24.3332 11.5 23.2832 11.5 21.9998C11.5 20.7165 12.55 19.6665 13.8333 19.6665Z" fill="black"/>
</svg>
