<svg width="28" height="23" viewBox="0 0 28 23" fill="none" xmlns="http://www.w3.org/2000/svg">
<path fill-rule="evenodd" clip-rule="evenodd" d="M4.20476 0.350586C2.41271 0.350586 0.959961 1.89368 0.959961 3.79719V16.4347C0.959961 18.3382 2.41271 19.8813 4.20476 19.8813H18.347L20.1286 22.2225C20.5615 22.7914 21.378 22.7914 21.8109 22.2225L23.5925 19.8813H24.7552C26.5472 19.8813 28 18.3382 28 16.4347V3.79719C28 1.89368 26.5472 0.350586 24.7552 0.350586H4.20476ZM9.17503 12.0867C10.264 12.0867 11.1467 11.1672 11.1467 10.0329C11.1467 8.89858 10.264 7.97906 9.17503 7.97906C8.08611 7.97906 7.20337 8.89858 7.20337 10.0329C7.20337 11.1672 8.08611 12.0867 9.17503 12.0867ZM16.7804 10.0329C16.7804 11.1672 15.8976 12.0867 14.8087 12.0867C13.7198 12.0867 12.837 11.1672 12.837 10.0329C12.837 8.89858 13.7198 7.97906 14.8087 7.97906C15.8976 7.97906 16.7804 8.89858 16.7804 10.0329ZM19.8785 12.0867C20.9674 12.0867 21.8502 11.1672 21.8502 10.0329C21.8502 8.89858 20.9674 7.97906 19.8785 7.97906C18.7896 7.97906 17.9068 8.89858 17.9068 10.0329C17.9068 11.1672 18.7896 12.0867 19.8785 12.0867Z" fill="#A467FF"/>
</svg>
