<svg width="16" height="14" viewBox="0 0 16 14" fill="none" xmlns="http://www.w3.org/2000/svg">
<path d="M10 3.33633C10 3.70452 10.2985 4.00299 10.6667 4.00299C11.0349 4.00299 11.3334 3.70452 11.3334 3.33633H10ZM4.66675 3.33633C4.66675 3.70452 4.96522 4.00299 5.33341 4.00299C5.7016 4.00299 6.00008 3.70452 6.00008 3.33633H4.66675ZM6.66675 8.66966C6.29856 8.66966 6.00008 8.96816 6.00008 9.33636C6.00008 9.70456 6.29856 10.003 6.66675 10.003V8.66966ZM9.33341 10.003C9.7016 10.003 10 9.70456 10 9.33636C10 8.96816 9.7016 8.66966 9.33341 8.66966V10.003ZM2.00008 6.00299C1.63189 6.00299 1.33341 6.30147 1.33341 6.66966C1.33341 7.03785 1.63189 7.33633 2.00008 7.33633V6.00299ZM14 7.33633C14.3682 7.33633 14.6667 7.03785 14.6667 6.66966C14.6667 6.30147 14.3682 6.00299 14 6.00299V7.33633ZM8.00008 1.33633C8.66298 1.33633 8.86365 1.34205 9.01184 1.38176L9.35693 0.0938639C8.99645 -0.00272615 8.57714 0.00299383 8.00008 0.00299383V1.33633ZM11.3334 3.33633C11.3334 2.75927 11.3391 2.33996 11.2425 1.97948L9.95465 2.32457C9.99435 2.47275 10 2.67342 10 3.33633H11.3334ZM9.01184 1.38176C9.47196 1.50505 9.83136 1.86445 9.95465 2.32457L11.2425 1.97948C10.9959 1.05923 10.2771 0.340444 9.35693 0.0938639L9.01184 1.38176ZM8.00008 0.00299383C7.42302 0.00299383 7.00371 -0.00272615 6.64323 0.0938639L6.98832 1.38176C7.13651 1.34205 7.33718 1.33633 8.00008 1.33633V0.00299383ZM6.00008 3.33633C6.00008 2.67342 6.00581 2.47275 6.04551 2.32457L4.75761 1.97948C4.66102 2.33996 4.66675 2.75927 4.66675 3.33633H6.00008ZM6.64323 0.0938639C5.72298 0.340444 5.00419 1.05923 4.75761 1.97948L6.04551 2.32457C6.1688 1.86445 6.5282 1.50505 6.98832 1.38176L6.64323 0.0938639ZM3.46675 4.00299H12.5334V2.66966H3.46675V4.00299ZM14 5.46966V10.5364H15.3334V5.46966H14ZM12.5334 12.003H3.46675V13.3364H12.5334V12.003ZM2.00008 10.5364V5.46966H0.666749V10.5364H2.00008ZM3.46675 12.003C3.08238 12.003 2.8342 12.0025 2.6453 11.9871C2.4642 11.9723 2.39705 11.9472 2.36409 11.9304L1.75877 13.1184C2.01102 13.2469 2.27317 13.2945 2.53673 13.316C2.79251 13.3369 3.10438 13.3364 3.46675 13.3364V12.003ZM0.666749 10.5364C0.666749 10.8987 0.666231 11.2106 0.687129 11.4664C0.708663 11.7299 0.756207 11.9921 0.884736 12.2443L2.07274 11.639C2.05595 11.6061 2.03083 11.5389 2.01603 11.3578C2.0006 11.1689 2.00008 10.9207 2.00008 10.5364H0.666749ZM2.36409 11.9304C2.23864 11.8665 2.13666 11.7645 2.07274 11.639L0.884736 12.2443C1.07648 12.6207 1.38244 12.9266 1.75877 13.1184L2.36409 11.9304ZM14 10.5364C14 10.9207 13.9995 11.1689 13.9841 11.3578C13.9693 11.5389 13.9442 11.6061 13.9274 11.639L15.1154 12.2443C15.2439 11.9921 15.2915 11.7299 15.313 11.4664C15.3339 11.2106 15.3334 10.8987 15.3334 10.5364H14ZM12.5334 13.3364C12.8957 13.3364 13.2076 13.3369 13.4634 13.316C13.727 13.2945 13.9891 13.2469 14.2414 13.1184L13.636 11.9304C13.6031 11.9472 13.5359 11.9723 13.3548 11.9871C13.1659 12.0025 12.9177 12.003 12.5334 12.003V13.3364ZM13.9274 11.639C13.8635 11.7645 13.7615 11.8665 13.636 11.9304L14.2414 13.1184C14.6177 12.9266 14.9236 12.6207 15.1154 12.2443L13.9274 11.639ZM12.5334 4.00299C12.9177 4.00299 13.1659 4.00351 13.3548 4.01894C13.5359 4.03374 13.6031 4.05886 13.636 4.07566L14.2414 2.88765C13.9891 2.75912 13.727 2.71157 13.4634 2.69004C13.2076 2.66914 12.8957 2.66966 12.5334 2.66966V4.00299ZM15.3334 5.46966C15.3334 5.10729 15.3339 4.79542 15.313 4.53964C15.2915 4.27608 15.2439 4.01393 15.1154 3.76168L13.9274 4.367C13.9442 4.39996 13.9693 4.46711 13.9841 4.64822C13.9995 4.83711 14 5.08529 14 5.46966H15.3334ZM13.636 4.07566C13.7615 4.13957 13.8635 4.24156 13.9274 4.367L15.1154 3.76168C14.9236 3.38536 14.6177 3.07939 14.2414 2.88765L13.636 4.07566ZM3.46675 2.66966C3.10438 2.66966 2.79251 2.66914 2.53673 2.69004C2.27317 2.71157 2.01102 2.75912 1.75877 2.88765L2.36409 4.07566C2.39705 4.05886 2.4642 4.03374 2.6453 4.01894C2.8342 4.00351 3.08238 4.00299 3.46675 4.00299V2.66966ZM2.00008 5.46966C2.00008 5.08529 2.0006 4.83711 2.01603 4.64822C2.03083 4.46711 2.05595 4.39996 2.07274 4.367L0.884736 3.76168C0.756207 4.01393 0.708663 4.27608 0.687129 4.53964C0.666231 4.79542 0.666749 5.10729 0.666749 5.46966H2.00008ZM1.75877 2.88765C1.38244 3.07939 1.07648 3.38535 0.884736 3.76168L2.07274 4.367C2.13666 4.24156 2.23865 4.13957 2.36409 4.07566L1.75877 2.88765ZM6.66675 10.003H9.33341V8.66966H6.66675V10.003ZM2.00008 7.33633H14V6.00299H2.00008V7.33633Z" fill="#2A3137"/>
</svg>
