<svg width="16" height="16" viewBox="0 0 16 16" fill="none" xmlns="http://www.w3.org/2000/svg">
<path d="M0.793 15.47C0.82725 15.498 0.869801 15.5138 0.914 15.515C2.679 15.552 4.074 15.215 5.102 14.505C6 14.825 6.978 15 8 15C12.418 15 16 11.75 16 7.5C16 3.25 12.418 0 8 0C3.582 0 0 3.25 0 7.5C0 9.446 0.751 11.183 1.99 12.494C1.921 13.364 1.512 14.262 0.763 15.189C0.72976 15.2303 0.71425 15.283 0.719875 15.3357C0.725499 15.3884 0.751799 15.4367 0.793 15.47ZM8 13C7.53945 13.0006 7.08005 12.9541 6.629 12.861C5.502 12.628 5.038 12.734 4.1 13.404C3.728 13.67 3.064 13.932 3.064 13.932C3.064 13.932 4.054 11.974 3.064 10.673C2.3687 9.76183 1.99458 8.64614 2 7.5C2 4.426 4.614 2 8 2C11.386 2 14 4.426 14 7.5C14 10.573 11.386 13 8 13Z" fill="#242729"/>
</svg>
