<svg width="17" height="16" viewBox="0 0 17 16" fill="none" xmlns="http://www.w3.org/2000/svg">
<path d="M1.58914 1.01833C-1.20312 3.47133 1.31456 8.03633 4.5992 11.2183C7.88282 14.3993 12.6023 16.8443 15.1344 14.1393C15.3099 13.9513 15.6072 13.5393 16.0242 12.9063C16.171 12.6826 16.2201 12.4115 16.1607 12.1528C16.1012 11.894 15.9382 11.6687 15.7073 11.5263L13.1928 10.1263C12.9674 10.0013 12.7016 9.96311 12.4485 10.0195C12.1954 10.0758 11.9735 10.2225 11.8271 10.4303C11.634 10.7113 11.4142 10.9753 11.1716 11.2173C9.78527 12.5543 8.03352 11.3633 6.24153 9.62733C4.44849 7.89033 3.2263 6.20033 4.60643 4.85733C4.81598 4.65333 5.08643 4.44133 5.41778 4.22233C5.63257 4.08046 5.7842 3.86532 5.84238 3.61987C5.90055 3.37442 5.86099 3.11675 5.73159 2.89833L4.28746 0.462326C4.14035 0.238852 3.90768 0.0810943 3.64058 0.0237168C3.37347 -0.0336607 3.09377 0.0140357 2.86294 0.156326C2.20849 0.560326 1.78424 0.846326 1.58914 1.01833Z" fill="#242729"/>
</svg>
