<svg width="24" height="25" viewBox="0 0 24 25" fill="none" xmlns="http://www.w3.org/2000/svg">
<path d="M12 1.5C7.95222 1.5 4.64997 4.77603 4.64997 8.79165C4.64997 11.302 5.94147 13.5312 7.89867 14.8468C4.15332 16.4406 1.49997 20.128 1.49997 24.4167H3.59997C3.59997 19.802 7.34847 16.0834 12 16.0834C16.6514 16.0834 20.4 19.802 20.4 24.4167H22.5C22.5 20.128 19.8466 16.4416 16.1013 14.8458C17.1002 14.1768 17.9187 13.2752 18.4849 12.2198C19.0513 11.1643 19.3483 9.98724 19.35 8.79165C19.35 4.77603 16.0477 1.5 12 1.5ZM12 3.58333C14.9116 3.58333 17.2499 5.90311 17.2499 8.79165C17.2499 11.6802 14.9116 13.9999 12 13.9999C9.08833 13.9999 6.74997 11.6802 6.74997 8.79165C6.74997 5.90311 9.08833 3.58333 12 3.58333Z" fill="#1B1B1B"/>
</svg>
