<?xml version="1.0" encoding="utf-8"?>
<!-- Generator: Adobe Illustrator 25.3.1, SVG Export Plug-In . SVG Version: 6.00 Build 0)  -->
<svg version="1.2" baseProfile="tiny" id="Layer_1" xmlns="http://www.w3.org/2000/svg" xmlns:xlink="http://www.w3.org/1999/xlink"
	 x="0px" y="0px" viewBox="0 0 1000 429.1" overflow="visible" xml:space="preserve">
<g>
	<path d="M564.2,287.2c0,1.5,0.4,2.3,1.3,2.3c0.6,0,1.2-0.3,1.9-0.7l249.3-161.9c4.4-2.9,8.4-4.4,14.4-4.4H886c8.4,0,14,5.6,14,14.1
		v104.6c0,12.7-2.8,19.9-14,26.7l-66.5,39.9c-0.9,0.6-1.6,0.8-2.2,0.8c-0.8,0-1.5-0.6-1.5-2.9l0-122.1c0-1.3-0.5-2.3-1.4-2.3
		c-0.6,0-1.2,0.3-1.9,0.7L630.2,300.4c-5.1,3.3-9.3,4.3-14,4.3H495.3c-8.4,0-14.1-5.6-14.1-14.1V139.8c0-1.1-0.5-2.1-1.3-2.1
		c-0.6,0-1.2,0.3-2,0.7l-120.2,72.2c-1.2,0.7-1.5,1.3-1.5,1.9c0,0.5,0.2,1,1.1,1.9l85.9,85.9c1.1,1.1,1.9,2,1.9,2.9
		c0,1-1.3,1.5-2.7,1.5l-77.7,0c-6.1,0-10.8-0.9-14.1-4.2l-52.1-52.1c-0.5-0.5-0.9-0.8-1.5-0.8c-0.5,0-1.1,0.2-1.6,0.6l-87.1,52.3
		c-5.3,3.2-8.9,4.2-14.1,4.2H114c-8.4,0-14-5.6-14-14.1V187.9c0-12.6,2.8-19.9,14.1-26.6l66.9-40.2c0.7-0.4,1.3-0.6,1.8-0.6
		c1,0,1.6,1.1,1.6,3.4v137.3c0,1.4,0.4,2.1,1.3,2.1c0.6,0,1.2-0.4,2-0.8l226-135.8c5.4-3.3,8.7-4.2,14.9-4.2h121.6
		c8.4,0,14.1,5.6,14.1,14.1V287.2z"/>
</g>
</svg>
