<svg width="677.000000" height="50.000000" viewBox="0 0 677 50" fill="none" xmlns="http://www.w3.org/2000/svg" xmlns:xlink="http://www.w3.org/1999/xlink">
	<desc>
			Created with Pixso.
	</desc>
	<defs/>
	<rect id="Rectangle 93" rx="25.000000" width="50.000000" height="50.000000" transform="matrix(1 -8.74228e-08 -8.74228e-08 -1 0 50)" fill="#0082C6" fill-opacity="1.000000"/>
	<path id="Vector" d="M23.26 23.36C23.13 23.49 23.02 23.65 22.95 23.82C22.88 23.99 22.84 24.18 22.84 24.37C22.84 24.56 22.88 24.74 22.95 24.92C23.02 25.09 23.13 25.25 23.26 25.38L29.82 31.91C29.95 32.05 30.06 32.21 30.13 32.38C30.2 32.55 30.24 32.74 30.24 32.93C30.24 33.12 30.2 33.3 30.13 33.48C30.06 33.65 29.95 33.81 29.82 33.94C29.55 34.21 29.19 34.35 28.81 34.35C28.43 34.35 28.07 34.21 27.81 33.94L21.25 27.39C20.45 26.59 20 25.5 20 24.37C20 23.24 20.45 22.15 21.25 21.35L27.81 14.8C28.07 14.54 28.43 14.39 28.81 14.39C28.99 14.38 29.18 14.42 29.35 14.49C29.53 14.56 29.69 14.67 29.82 14.8C29.95 14.93 30.06 15.09 30.13 15.26C30.2 15.44 30.24 15.62 30.24 15.81C30.24 16 30.2 16.19 30.13 16.36C30.06 16.53 29.95 16.69 29.82 16.82L23.26 23.36Z" fill="#FFFFFF" fill-opacity="1.000000" fill-rule="nonzero"/>
</svg>
